<svg id="Layer_1" data-name="Layer 1" xmlns="http://www.w3.org/2000/svg" viewBox="0 0 14.17 14.17"><defs><style>.cls-1{fill:none;stroke:#f6f4f9;stroke-linecap:round;stroke-linejoin:round;stroke-width:0.35px;}</style></defs><path class="cls-1" d="M12.6,4.47,10.47,5.56l-3,1.54a1,1,0,0,1-.94,0l-3-1.54L.44,4a.26.26,0,0,1,0-.43L3.51,2l3-1.54a1,1,0,0,1,.94,0l3,1.54,3.37,1.73"/><path class="cls-1" d="M10.86,5.51l.75,4.57a.79.79,0,0,1-.73.95H3.1a.78.78,0,0,1-.72-.95l.74-4.57"/><polyline class="cls-1" points="6.99 3.77 13.17 4.43 13.17 11.34"/><rect class="cls-1" x="12.49" y="11.34" width="1.35" height="2.5"/></svg>