<svg id="Layer_1" data-name="Layer 1" xmlns="http://www.w3.org/2000/svg" viewBox="0 0 14.17 14.17"><defs><style>.cls-1{fill:none;stroke:#f6f4f9;stroke-linecap:round;stroke-linejoin:round;stroke-width:0.35px;}</style></defs><path class="cls-1" d="M8.83,6.76l4.88-4.88a.5.5,0,0,0,0-.7L13,.46a.5.5,0,0,0-.7,0L7.41,5.34a.46.46,0,0,1-.65,0L1.88.46a.5.5,0,0,0-.7,0l-.72.72a.5.5,0,0,0,0,.7L5.34,6.76a.46.46,0,0,1,0,.65L.46,12.29a.5.5,0,0,0,0,.7l.72.72a.5.5,0,0,0,.7,0L6.76,8.83a.46.46,0,0,1,.65,0l4.88,4.88a.5.5,0,0,0,.7,0l.72-.72a.5.5,0,0,0,0-.7L8.83,7.41A.46.46,0,0,1,8.83,6.76Z"/><line class="cls-1" x1="1.36" y1="1.36" x2="12.81" y2="12.81"/><line class="cls-1" x1="6.27" y1="7.91" x2="1.36" y2="12.81"/><line class="cls-1" x1="12.81" y1="1.36" x2="7.09" y2="7.09"/></svg>