<svg id="Layer_1" data-name="Layer 1" xmlns="http://www.w3.org/2000/svg" viewBox="0 0 14.17 14.17"><defs><style>.cls-1{fill:none;stroke:#f6f4f9;stroke-linecap:round;stroke-linejoin:round;stroke-width:0.35px;}</style></defs><path class="cls-1" d="M4.77,13.87h-4a.42.42,0,0,1-.43-.42V9.91"/><path class="cls-1" d="M13.87,9.91v3.54a.42.42,0,0,1-.42.42h-4"/><path class="cls-1" d="M9.4.3h4a.42.42,0,0,1,.42.43V4.27"/><path class="cls-1" d="M.3,4.27V.73A.43.43,0,0,1,.73.3h4"/><line class="cls-1" x1="4.79" y1="9.4" x2="0.65" y2="13.56"/><line class="cls-1" x1="13.74" y1="13.75" x2="9.4" y2="9.4"/><polyline class="cls-1" points="13.57 0.56 9.4 4.77 9.39 4.77"/><line class="cls-1" x1="4.77" y1="4.77" x2="0.43" y2="0.42"/></svg>