<svg id="Layer_1" data-name="Layer 1" xmlns="http://www.w3.org/2000/svg" viewBox="0 0 14.17 14.17"><defs><style>.cls-1{fill:none;stroke:#f6f4f9;stroke-linecap:round;stroke-linejoin:round;stroke-width:0.35px;}</style></defs><path class="cls-1" d="M9.35,2.9H10a.3.3,0,0,0,.31-.3V1.26A.3.3,0,0,0,10,1L8.57.93a2.73,2.73,0,0,0-2.8,2.74V5.08a.3.3,0,0,1-.31.3H4.16a.3.3,0,0,0-.3.31V7.35a.3.3,0,0,0,.3.31h1.3a.3.3,0,0,1,.31.3v5a.3.3,0,0,0,.3.31H7.74a.3.3,0,0,0,.3-.31V8a.3.3,0,0,1,.31-.3H9.68A.31.31,0,0,0,10,7.39l.2-1.66a.3.3,0,0,0-.3-.35H8.35A.3.3,0,0,1,8,5.08V4.21A1.31,1.31,0,0,1,9.35,2.9Z"/><rect class="cls-1" x="0.28" y="0.28" width="13.62" height="13.62" rx="0.84"/></svg>