<svg id="Layer_1" data-name="Layer 1" xmlns="http://www.w3.org/2000/svg" viewBox="0 0 14.17 14.17"><defs><style>.cls-1{fill:none;stroke:#f6f4f9;stroke-linecap:round;stroke-linejoin:round;stroke-width:0.35px;}</style></defs><path class="cls-1" d="M5.87,13.69S.42,13.43.42,9.9c0-2.25,1.69-2.81,1-5.38A3.8,3.8,0,0,1,3.63,7S3.34,5.52,5.37,4A2.91,2.91,0,0,0,6.45.36S12.82,4.42,11,8.83a3.44,3.44,0,0,0,2.25-2.08s2.78,6-4.59,6.94a2.27,2.27,0,0,0,1.45-2.12c0-1.19-.91-1.72-1.74-2.42A2.87,2.87,0,0,1,7.35,7S4.71,8.61,5.64,10.82A3.6,3.6,0,0,1,4.31,9.33,3.19,3.19,0,0,0,5.87,13.69Z"/></svg>