<svg id="Layer_1" data-name="Layer 1" xmlns="http://www.w3.org/2000/svg" viewBox="0 0 14.17 14.17"><defs><style>.cls-1{fill:none;stroke:#f6f4f9;stroke-linecap:round;stroke-linejoin:round;stroke-width:0.35px;}</style></defs><path class="cls-1" d="M.37,9.69l.5-.5a3.35,3.35,0,0,1,4.05-.57,3.73,3.73,0,0,1,.69.51,3.78,3.78,0,0,1,.46.51l.35.47a2.06,2.06,0,0,0,3,.45l.54-.42c2.32-1.75,3.87.42,3.87,1.27v.73a1.57,1.57,0,0,1-1.48,1.66H1.85A1.58,1.58,0,0,1,.37,12.13V2A1.58,1.58,0,0,1,1.85.37H12.32A1.58,1.58,0,0,1,13.8,2v9.35"/><polyline class="cls-1" points="4.79 8.55 4.51 7.72 9.25 9.35 8.64 10.92"/><path class="cls-1" d="M8.12,8a7.31,7.31,0,0,1,.14-4.71S5.55,4.44,5.36,7Z"/></svg>