<svg id="Layer_1" data-name="Layer 1" xmlns="http://www.w3.org/2000/svg" viewBox="0 0 14.17 14.17"><defs><style>.cls-1{fill:none;stroke:#f6f4f9;stroke-linecap:round;stroke-linejoin:round;stroke-width:0.35px;}</style></defs><path class="cls-1" d="M10.63,5.8h1.23c.22,0,.39.24.39.53v6.14c0,.29-.17.53-.39.53H11c-.21,0-.39-.24-.39-.53V1.28c0-.5-.29-.9-.66-.9H1c-.37,0-.66.4-.66.9V12.9c0,.49.29.89.66.89H13.21c.36,0,.66-.4.66-.89V7.77c0-.38-.23-.68-.51-.68H12.25"/><rect class="cls-1" x="1.44" y="1.6" width="3.24" height="3.24" rx="0.57"/><line class="cls-1" x1="6.19" y1="1.96" x2="9.51" y2="1.96"/><line class="cls-1" x1="6.19" y1="3.22" x2="9.51" y2="3.22"/><line class="cls-1" x1="6.19" y1="4.48" x2="9.51" y2="4.48"/><line class="cls-1" x1="1.44" y1="6.51" x2="9.51" y2="6.51"/><line class="cls-1" x1="1.44" y1="7.82" x2="9.51" y2="7.82"/><line class="cls-1" x1="1.44" y1="9.98" x2="9.51" y2="9.98"/><line class="cls-1" x1="1.44" y1="11.28" x2="9.51" y2="11.28"/></svg>