<svg id="Layer_1" data-name="Layer 1" xmlns="http://www.w3.org/2000/svg" viewBox="0 0 14.17 14.17"><defs><style>.cls-1{fill:none;stroke:#f6f4f9;stroke-linecap:round;stroke-linejoin:round;stroke-width:0.35px;}</style></defs><path class="cls-1" d="M8.82,8.38,9.94,9.44a.06.06,0,0,0,.11,0l-.11-2.1a.44.44,0,0,0-.34-.41l-.44-.11A.26.26,0,0,1,9,6.51,9.26,9.26,0,0,0,7.19.42a.13.13,0,0,0-.2,0A9.23,9.23,0,0,0,5.21,6.51.25.25,0,0,1,5,6.77l-.45.11a.44.44,0,0,0-.34.41l-.11,2.1a.07.07,0,0,0,.12,0L5.35,8.38a.36.36,0,0,1,.24-.09h3A.34.34,0,0,1,8.82,8.38Z"/><circle class="cls-1" cx="7.09" cy="3.59" r="0.6"/><path class="cls-1" d="M6.28,1.65a1.42,1.42,0,0,0,.81.26,1.4,1.4,0,0,0,.8-.26"/><path class="cls-1" d="M7.93,9.07a3.11,3.11,0,0,1-.74,1.55.15.15,0,0,1-.21,0,3.05,3.05,0,0,1-.73-1.55"/><path class="cls-1" d="M8.59,9.34a6.62,6.62,0,0,1-1.4,2.93.17.17,0,0,1-.21,0,6.62,6.62,0,0,1-1.4-2.93"/><path class="cls-1" d="M1.73,12.88a1.61,1.61,0,0,1,2.41.71,1,1,0,0,1,1.52.11,1.65,1.65,0,0,1,2.73.05s.72-.93,1.79.05a1.4,1.4,0,0,1,2.08-.45"/><path class="cls-1" d="M9.41,11.42s.39-1.05,1.69-.32a1.7,1.7,0,0,1,2.7-.43"/><path class="cls-1" d="M4.93,11.93a.64.64,0,0,0-1-.14,1,1,0,0,0-1.48-.18"/><path class="cls-1" d="M4.23,10.69A1.64,1.64,0,0,0,2,10.45,1.48,1.48,0,0,0,.38,9.87"/></svg>