<svg id="Layer_1" data-name="Layer 1" xmlns="http://www.w3.org/2000/svg" viewBox="0 0 14.17 14.17"><defs><style>.cls-1{fill:none;stroke:#f6f4f9;stroke-linecap:round;stroke-linejoin:round;stroke-width:0.35px;}</style></defs><path class="cls-1" d="M8.06,6.5a1.79,1.79,0,0,0,2.56,0,1.65,1.65,0,0,0,.4-.62"/><path class="cls-1" d="M11.13,4.94a1.85,1.85,0,0,0-.51-1"/><path class="cls-1" d="M6.7,9.32A4.7,4.7,0,1,0,4.83,7.49a.56.56,0,0,1-.08.67L.58,12.32a.53.53,0,0,0,0,.75l.47.51a.54.54,0,0,0,.78,0L6,9.4A.57.57,0,0,1,6.7,9.32Z"/><ellipse class="cls-1" cx="8.99" cy="5.18" rx="3.36" ry="3.37"/><path class="cls-1" d="M1.41,12.74,5.85,8.33a.34.34,0,0,1,.48,0,4.09,4.09,0,0,0,5.48-6.05"/></svg>