<svg id="Layer_1" data-name="Layer 1" xmlns="http://www.w3.org/2000/svg" viewBox="0 0 14.17 14.17"><defs><style>.cls-1{fill:none;stroke:#f6f4f9;stroke-linecap:round;stroke-linejoin:round;stroke-width:0.35px;}</style></defs><circle class="cls-1" cx="7.09" cy="7.09" r="2.59"/><path class="cls-1" d="M11.83,7.09a4.48,4.48,0,0,0-.05-.64.33.33,0,0,1,.16-.34l1.6-.93a.33.33,0,0,0,.12-.47l-1.32-2.1a.35.35,0,0,0-.48-.11l-1.62.93a.36.36,0,0,1-.4,0,4.89,4.89,0,0,0-.9-.49.34.34,0,0,1-.22-.31V.8A.35.35,0,0,0,8.36.46H5.81A.35.35,0,0,0,5.45.8V2.61a.34.34,0,0,1-.22.31,4.89,4.89,0,0,0-.9.49.35.35,0,0,1-.39,0L2.32,2.5a.36.36,0,0,0-.49.11L.51,4.71a.34.34,0,0,0,.12.47l1.6.93a.32.32,0,0,1,.17.34,4.12,4.12,0,0,0,0,1.27.34.34,0,0,1-.17.35L.63,9a.34.34,0,0,0-.12.47l1.32,2.1a.38.38,0,0,0,.49.12l1.62-.94a.37.37,0,0,1,.39,0,4.36,4.36,0,0,0,.9.49.36.36,0,0,1,.22.32v1.8a.36.36,0,0,0,.36.35H8.36a.36.36,0,0,0,.36-.35v-1.8a.36.36,0,0,1,.22-.32,4.36,4.36,0,0,0,.9-.49.38.38,0,0,1,.4,0l1.62.94a.37.37,0,0,0,.48-.12l1.32-2.1A.33.33,0,0,0,13.54,9l-1.6-.92a.34.34,0,0,1-.16-.35A4.46,4.46,0,0,0,11.83,7.09Z"/></svg>