<svg id="Layer_1" data-name="Layer 1" xmlns="http://www.w3.org/2000/svg" viewBox="0 0 14.17 14.17"><defs><style>.cls-1{fill:none;stroke:#f6f4f9;stroke-linecap:round;stroke-linejoin:round;stroke-width:0.35px;}</style></defs><path class="cls-1" d="M8.42,4.05h-.6a5.31,5.31,0,0,0-5.35,4.1,4.81,4.81,0,0,1-.11-1A5.25,5.25,0,0,1,7.82,2h.7L8,.8A.32.32,0,0,1,8.46.39l5.17,2.43a.33.33,0,0,1,0,.6l-5,2.31a.32.32,0,0,1-.44-.37L8.7,3.29"/><path class="cls-1" d="M12.58,5.69v7.64a.49.49,0,0,1-.49.49H.84a.48.48,0,0,1-.48-.49V2.08A.47.47,0,0,1,.84,1.6H3.39"/></svg>