<svg id="Layer_1" data-name="Layer 1" xmlns="http://www.w3.org/2000/svg" viewBox="0 0 14.17 14.17"><defs><style>.cls-1{fill:none;stroke:#f6f4f9;stroke-linecap:round;stroke-linejoin:round;stroke-width:0.35px;}</style></defs><path class="cls-1" d="M.94,11.26a.12.12,0,0,0-.06.22,8.54,8.54,0,0,0,5.81.68c3.86-.74,5.8-5.19,5.58-7.55a.44.44,0,0,1,.17-.37,7.71,7.71,0,0,0,.89-.82.13.13,0,0,0-.14-.2,2.63,2.63,0,0,1-1.07.22,4.22,4.22,0,0,0,1-1.13.12.12,0,0,0-.16-.17,7.33,7.33,0,0,1-1.2.48.24.24,0,0,1-.22,0,2.89,2.89,0,0,0-3.08-.5A2.85,2.85,0,0,0,7,4.89a.18.18,0,0,1-.17.18A7.17,7.17,0,0,1,1.64,2.46a.16.16,0,0,0-.26,0A2.61,2.61,0,0,0,2,5.55c.11.11.15.3-.12.28a1.25,1.25,0,0,1-.53-.17.16.16,0,0,0-.23.16A2.9,2.9,0,0,0,3.05,8.11a.11.11,0,0,1,0,.2,2.6,2.6,0,0,1-.69,0,.15.15,0,0,0-.17.21,2.49,2.49,0,0,0,2.11,1.55.12.12,0,0,1,.06.2A5.71,5.71,0,0,1,.94,11.26Z"/><rect class="cls-1" x="0.28" y="0.28" width="13.62" height="13.62" rx="0.84"/></svg>