<svg id="Layer_1" data-name="Layer 1" xmlns="http://www.w3.org/2000/svg" viewBox="0 0 14.17 14.17"><defs><style>.cls-1{fill:none;stroke:#f6f4f9;stroke-linecap:round;stroke-linejoin:round;stroke-width:0.35px;}</style></defs><path class="cls-1" d="M6.83,9.59l-3.38,2a.22.22,0,0,1-.33-.2V7.45a.22.22,0,0,1,.33-.19l3.38,2A.22.22,0,0,1,6.83,9.59Z"/><path class="cls-1" d="M9.72,9.29V5.72A.73.73,0,0,0,9,5H8A2.36,2.36,0,1,0,5.16,2H5A2.36,2.36,0,1,0,2.08,5h-1a.74.74,0,0,0-.74.74v7.37a.74.74,0,0,0,.74.73H9a.73.73,0,0,0,.73-.73V11.21a.31.31,0,0,1,.49-.25l3.15,2.49a.29.29,0,0,0,.47-.23V5.59a.29.29,0,0,0-.47-.23L9.72,8.28M3.87,4.79A2.31,2.31,0,0,0,5,3.47a.1.1,0,0,1,.2,0A2.31,2.31,0,0,0,6.25,4.79.1.1,0,0,1,6.2,5H3.92A.1.1,0,0,1,3.87,4.79Z"/></svg>