<svg id="Layer_1" data-name="Layer 1" xmlns="http://www.w3.org/2000/svg" viewBox="0 0 14.17 14.17"><defs><style>.cls-1{fill:none;stroke:#f6f4f9;stroke-linecap:round;stroke-linejoin:round;stroke-width:0.35px;}</style></defs><path class="cls-1" d="M1.27,9.48C1.34,7.16,3.08,6,4.73,4.62a5.76,5.76,0,0,0,2-4.33s4.76,3.16,2.9,7.61c0,0,2.13-1.08,2.61-2.68,0,0,3.14,7.69-4.24,8.66a2.58,2.58,0,0,0,1.06-2.27c0-1.2-.9-1.73-1.74-2.44A2.91,2.91,0,0,1,6.32,7S3.93,8.58,4.86,10.82A2.83,2.83,0,0,1,3.55,9.47a3.52,3.52,0,0,0,1.86,4.41S1.16,13.47,1.27,9.48Z"/></svg>