<svg id="Layer_1" data-name="Layer 1" xmlns="http://www.w3.org/2000/svg" viewBox="0 0 14.17 14.17"><defs><style>.cls-1{fill:none;stroke:#f6f4f9;stroke-linecap:round;stroke-linejoin:round;stroke-width:0.35px;}</style></defs><path class="cls-1" d="M.33,9.41.83,9A3.69,3.69,0,0,1,5.6,8.91a3.33,3.33,0,0,1,.46.46l.35.42a2.24,2.24,0,0,0,3,.4l.54-.37c2.34-1.56,3.9.37,3.9,1.13v.65a1.48,1.48,0,0,1-1.49,1.49H1.82A1.49,1.49,0,0,1,.33,11.6v-9A1.49,1.49,0,0,1,1.82,1.08H12.35a1.49,1.49,0,0,1,1.49,1.49v8.37"/><polyline class="cls-1" points="4.89 8.41 4.51 7.27 9.25 8.9 8.64 10.47"/><path class="cls-1" d="M8.12,7.52a7.31,7.31,0,0,1,.14-4.71S5.55,4,5.36,6.56Z"/></svg>