<svg id="Layer_1" data-name="Layer 1" xmlns="http://www.w3.org/2000/svg" viewBox="0 0 14.17 14.17"><defs><style>.cls-1{fill:none;stroke:#f6f4f9;stroke-linecap:round;stroke-linejoin:round;stroke-width:0.35px;}</style></defs><path class="cls-1" d="M10.63,6.14h1.23a.38.38,0,0,1,.39.39v4.05a.38.38,0,0,1-.39.38H11a.39.39,0,0,1-.39-.38V2.8A.65.65,0,0,0,10,2.14H1a.65.65,0,0,0-.66.66v8.58A.66.66,0,0,0,1,12H13.21a.67.67,0,0,0,.66-.66V7.59a.5.5,0,0,0-.51-.5H12.25"/><rect class="cls-1" x="1.8" y="4.12" width="2.51" height="2.51" rx="0.44"/><line class="cls-1" x1="5.65" y1="4.12" x2="8.98" y2="4.12"/><line class="cls-1" x1="5.65" y1="5.38" x2="8.98" y2="5.38"/><line class="cls-1" x1="5.65" y1="6.63" x2="8.98" y2="6.63"/><line class="cls-1" x1="1.8" y1="8.41" x2="8.98" y2="8.41"/><line class="cls-1" x1="1.8" y1="9.71" x2="8.98" y2="9.71"/></svg>