<svg id="Layer_1" data-name="Layer 1" xmlns="http://www.w3.org/2000/svg" viewBox="0 0 14.17 14.17"><defs><style>.cls-1{fill:none;stroke:#f6f4f9;stroke-linecap:round;stroke-linejoin:round;stroke-width:0.35px;}</style></defs><path class="cls-1" d="M13.87,11.91a1.18,1.18,0,0,1-1.15,1.21H1.45A1.18,1.18,0,0,1,.3,11.91V2.26a1.17,1.17,0,0,1,1.15-1.2H12.72a1.17,1.17,0,0,1,1.15,1.2Z"/><path class="cls-1" d="M10.76,7.53l-5.7,3.62a.46.46,0,0,1-.69-.44V3.46A.46.46,0,0,1,5.06,3l5.7,3.62A.54.54,0,0,1,10.76,7.53Z"/></svg>