<svg id="Layer_1" data-name="Layer 1" xmlns="http://www.w3.org/2000/svg" viewBox="0 0 14.17 14.17"><defs><style>.cls-1{fill:none;stroke:#f6f4f9;stroke-linecap:round;stroke-linejoin:round;stroke-width:0.35px;}</style></defs><path class="cls-1" d="M9.06,9.41l1.27,1.21a.08.08,0,0,0,.14-.06l-.13-2.4A.5.5,0,0,0,10,7.7l-.5-.12a.3.3,0,0,1-.23-.3A10.47,10.47,0,0,0,7.2.34.15.15,0,0,0,7,.34,10.47,10.47,0,0,0,5,7.28a.3.3,0,0,1-.22.3l-.51.12a.5.5,0,0,0-.39.46l-.12,2.4a.08.08,0,0,0,.13.06L5.11,9.41a.38.38,0,0,1,.27-.1H8.79A.38.38,0,0,1,9.06,9.41Z"/><circle class="cls-1" cx="7.09" cy="3.95" r="0.69"/><path class="cls-1" d="M6.17,1.74A1.65,1.65,0,0,0,7.09,2,1.59,1.59,0,0,0,8,1.74"/><path class="cls-1" d="M8,10.2A3.53,3.53,0,0,1,7.21,12,.18.18,0,0,1,7,12a3.59,3.59,0,0,1-.84-1.77"/><path class="cls-1" d="M8.8,10.5a7.51,7.51,0,0,1-1.6,3.34.17.17,0,0,1-.23,0,7.51,7.51,0,0,1-1.6-3.34"/></svg>