<svg id="Layer_1" data-name="Layer 1" xmlns="http://www.w3.org/2000/svg" viewBox="0 0 14.17 14.17"><defs><style>.cls-1{fill:none;stroke:#f6f4f9;stroke-linecap:round;stroke-linejoin:round;stroke-width:0.35px;}</style></defs><path class="cls-1" d="M8.13,6.44a1.82,1.82,0,0,0,2.58,0,1.68,1.68,0,0,0,.41-.62"/><path class="cls-1" d="M11.23,4.88a1.82,1.82,0,0,0-.52-1"/><path class="cls-1" d="M6.76,9.29a4.78,4.78,0,0,0,6.39-6.71A4.8,4.8,0,0,0,4.87,7.44a.57.57,0,0,1-.08.68L.32,12.59A.33.33,0,0,0,.41,13l.8.81a.32.32,0,0,0,.46,0l4.41-4.4A.56.56,0,0,1,6.76,9.29Z"/><circle class="cls-1" cx="9.07" cy="5.12" r="3.39"/></svg>