<svg id="Layer_1" data-name="Layer 1" xmlns="http://www.w3.org/2000/svg" viewBox="0 0 11.34 11.34"><defs><style>.cls-1{fill:none;stroke:#f6f4f9;stroke-linecap:round;stroke-linejoin:round;stroke-width:0.28px;}</style></defs><polyline class="cls-1" points="9.71 10.66 4.91 10.66 4.91 9.09 9.07 9.09 9.71 9.09 9.71 8.44 10.43 9.12 11.14 9.79 10.43 10.47 9.71 11.14 9.71 9.79"/><polyline class="cls-1" points="1.63 7.87 6.43 7.87 6.43 6.3 2.26 6.3 1.63 6.3 1.63 5.65 0.91 6.33 0.2 7 0.91 7.68 1.63 8.36 1.63 7"/><path class="cls-1" d="M4.22,5.3H3.53L5.27.19h.79L7.8,5.3H7.1L6.55,3.69H4.75l-.31.92m2-1.43-.5-1.47c-.11-.33-.19-.64-.27-.93h0c-.08.3-.16.61-.26.92l-.5,1.48Z"/></svg>