<svg id="Layer_1" data-name="Layer 1" xmlns="http://www.w3.org/2000/svg" viewBox="0 0 11.34 11.34"><defs><style>.cls-1{fill:none;stroke:#f6f4f9;stroke-linecap:round;stroke-linejoin:round;stroke-width:0.28px;}</style></defs><circle class="cls-1" cx="3.7" cy="3.7" r="0.68"/><line class="cls-1" x1="3.7" y1="2.68" x2="3.7" y2="1.8"/><line class="cls-1" x1="3.7" y1="5.61" x2="3.7" y2="4.72"/><line class="cls-1" x1="2.69" y1="3.7" x2="1.8" y2="3.7"/><line class="cls-1" x1="5.61" y1="3.7" x2="4.72" y2="3.7"/><line class="cls-1" x1="2.98" y1="4.42" x2="2.36" y2="5.05"/><line class="cls-1" x1="5.05" y1="2.36" x2="4.42" y2="2.98"/><line class="cls-1" x1="4.42" y1="4.42" x2="5.05" y2="5.05"/><line class="cls-1" x1="2.36" y1="2.36" x2="2.98" y2="2.98"/><path class="cls-1" d="M9.41,8.44A1.78,1.78,0,1,1,8,5.61a1.82,1.82,0,0,1,1.26.51,1.47,1.47,0,0,0-.36,0A1.34,1.34,0,0,0,7.44,7.31,1.33,1.33,0,0,0,8.87,8.53,1.57,1.57,0,0,0,9.41,8.44Z"/><path class="cls-1" d="M11.14,5.67a5.46,5.46,0,1,1-1.6-3.88A5.46,5.46,0,0,1,11.14,5.67Z"/><line class="cls-1" x1="9.54" y1="1.8" x2="1.88" y2="9.46"/></svg>