<svg id="Layer_1" data-name="Layer 1" xmlns="http://www.w3.org/2000/svg" viewBox="0 0 11.34 11.34"><defs><style>.cls-1{fill:none;stroke:#f6f4f9;stroke-linecap:round;stroke-linejoin:round;stroke-width:0.28px;}</style></defs><path class="cls-1" d="M2.81,7.13l.43-1s-1.81-2.22.35-3.94C5.22.83,8.2,1.69,8.54,3.78c.28,1.67-.61,3.55-2,3.57s-1.26-1.21-1-2,1-2.19-.39-2.44S3.79,4.53,3.91,5.26,4,6,3.68,7a15.25,15.25,0,0,0-.53,2.33c0,.38-.09,1.68.13,1.8s.88-.83,1.1-1.44.65-2,.65-2a1.87,1.87,0,0,0,2.07.76C8.65,8.18,9.84,6.91,10,4.56S8.63.39,5.93.21A4.11,4.11,0,0,0,1.3,3.94,3.48,3.48,0,0,0,2.81,7.13Z"/></svg>