<svg id="Layer_1" data-name="Layer 1" xmlns="http://www.w3.org/2000/svg" viewBox="0 0 11.34 11.34"><defs><style>.cls-1{fill:none;stroke:#f6f4f9;stroke-linecap:round;stroke-linejoin:round;stroke-width:0.28px;}</style></defs><path class="cls-1" d="M10.07,5.39A4.41,4.41,0,0,1,2.84,9.05"/><path class="cls-1" d="M1.83,7.84a1,1,0,0,1-.1-.18,4.41,4.41,0,1,1,7.87-4,.7.7,0,0,1,.09.17"/><path class="cls-1" d="M9.06,2.24c1-.05,1.73.18,2,.7C11.64,4.1,9.7,6.26,6.73,7.76S.87,9.55.29,8.4c-.27-.53,0-1.25.61-2"/><path class="cls-1" d="M9.57,2.83a.6.6,0,0,1,.46.28c.35.69-1.47,2.09-4,3.35s-4.7,1.9-5,1.21a.59.59,0,0,1,0-.54"/><path class="cls-1" d="M2.26,4.1a2,2,0,0,0,2,.21c1.16-.49.53-1.93,2.21-2.37"/><path class="cls-1" d="M1.9,5.8a3.11,3.11,0,0,0,3-.12c1.68-.9,1.1-2.34,3.31-3"/><path class="cls-1" d="M5.66,9.54s-.49-.57.8-1.12"/><path class="cls-1" d="M7.23,5.18A1.93,1.93,0,0,1,9,3.56"/><path class="cls-1" d="M7.49,9.18s-.51-.43.35-.92.87-1.07.87-1.07"/></svg>