<svg id="Layer_1" data-name="Layer 1" xmlns="http://www.w3.org/2000/svg" viewBox="0 0 11.34 11.34"><defs><style>.cls-1{fill:#f6f4f9;}.cls-2{fill:none;stroke:#f6f4f9;stroke-linecap:round;stroke-linejoin:round;stroke-width:0.28px;}</style></defs><path class="cls-1" d="M9.54,1.79,1.8,9.54A5.48,5.48,0,1,0,9.54,1.79Zm0,6.79A1.85,1.85,0,0,1,8,9.37,1.92,1.92,0,1,1,9.3,6.08a.14.14,0,0,1,0,.17.14.14,0,0,1-.15.07,1.15,1.15,0,0,0-.33,0A1.21,1.21,0,0,0,7.56,7.37,1.2,1.2,0,0,0,8.85,8.45a1.33,1.33,0,0,0,.49-.08.16.16,0,0,1,.16,0A.14.14,0,0,1,9.5,8.58Z"/><path class="cls-1" d="M8.85,8.73H9a1.61,1.61,0,0,1-1,.36A1.64,1.64,0,0,1,8,5.81,1.72,1.72,0,0,1,8.73,6,1.46,1.46,0,0,0,7.29,7.37,1.46,1.46,0,0,0,8.85,8.73Z"/><path class="cls-2" d="M11.14,5.67a5.46,5.46,0,1,1-1.6-3.88A5.46,5.46,0,0,1,11.14,5.67Z"/><line class="cls-2" x1="9.54" y1="1.8" x2="1.92" y2="9.42"/><circle class="cls-2" cx="3.81" cy="3.74" r="0.77"/><line class="cls-2" x1="3.81" y1="2.58" x2="3.81" y2="1.57"/><line class="cls-2" x1="3.81" y1="5.92" x2="3.81" y2="4.91"/><line class="cls-2" x1="2.64" y1="3.74" x2="1.63" y2="3.74"/><line class="cls-2" x1="5.98" y1="3.74" x2="4.97" y2="3.74"/><line class="cls-2" x1="2.98" y1="4.57" x2="2.27" y2="5.28"/><line class="cls-2" x1="5.35" y1="2.2" x2="4.63" y2="2.92"/><line class="cls-2" x1="4.63" y1="4.57" x2="5.35" y2="5.28"/><line class="cls-2" x1="2.27" y1="2.2" x2="2.98" y2="2.92"/></svg>