<svg id="Layer_1" data-name="Layer 1" xmlns="http://www.w3.org/2000/svg" viewBox="0 0 11.34 11.34"><defs><style>.cls-1{fill:none;stroke:#f6f4f9;stroke-linecap:round;stroke-linejoin:round;stroke-width:0.28px;}</style></defs><path class="cls-1" d="M3.82,10.49H.6a.34.34,0,0,1-.34-.34V7.32"/><path class="cls-1" d="M11.08,7.32v2.83a.34.34,0,0,1-.34.34H7.51"/><path class="cls-1" d="M7.51.85h3.23a.34.34,0,0,1,.34.34V4"/><path class="cls-1" d="M.26,4V1.19A.34.34,0,0,1,.6.85H3.82"/><line class="cls-1" x1="3.82" y1="7.32" x2="0.37" y2="10.39"/><line class="cls-1" x1="10.97" y1="10.39" x2="7.52" y2="7.32"/><polyline class="cls-1" points="7.51 4.02 7.52 4.02 10.97 0.95"/><line class="cls-1" x1="3.82" y1="4.02" x2="0.37" y2="0.95"/></svg>