<svg id="Layer_1" width='20px' height='20px' data-name="Layer 1" xmlns="http://www.w3.org/2000/svg" viewBox="0 0 11.34 11.34"><defs><style>.cls-1{fill:none;stroke:#f6f4f9;stroke-linecap:round;stroke-linejoin:round;stroke-width:0.28px;}</style></defs><rect class="cls-1" x="0.31" y="0.91" width="10.71" height="9.52" rx="1.18"/><path class="cls-1" d="M.31,7.51l.4-.35a2.92,2.92,0,0,1,3.23-.4,2.37,2.37,0,0,1,.55.36,4.17,4.17,0,0,1,.37.36l.27.33a1.79,1.79,0,0,0,2.38.32l.42-.3a1.9,1.9,0,0,1,3.08.8"/><polyline class="cls-1" points="3.93 6.72 3.63 5.82 7.39 7.11 6.9 8.35"/><path class="cls-1" d="M6.49,6A5.79,5.79,0,0,1,6.6,2.28a4,4,0,0,0-2.3,3Z"/></svg>