<svg id="Layer_1" data-name="Layer 1" xmlns="http://www.w3.org/2000/svg" viewBox="0 0 11.34 11.34"><defs><style>.cls-1{fill:none;stroke:#f6f4f9;stroke-linecap:round;stroke-linejoin:round;stroke-width:0.28px;}</style></defs><path class="cls-1" d="M7.25,7.53l1,1a.06.06,0,0,0,.1-.05l-.1-1.91A.39.39,0,0,0,8,6.16l-.4-.1a.24.24,0,0,1-.18-.24A8.35,8.35,0,0,0,5.76.28a.13.13,0,0,0-.18,0A8.35,8.35,0,0,0,4,5.82a.25.25,0,0,1-.18.24l-.4.1a.38.38,0,0,0-.31.37L3,8.44a.07.07,0,0,0,.11.05l1-1a.31.31,0,0,1,.22-.09H7A.31.31,0,0,1,7.25,7.53Z"/><circle class="cls-1" cx="5.67" cy="3.16" r="0.55"/><path class="cls-1" d="M4.94,1.4a1.27,1.27,0,0,0,1.46,0"/><path class="cls-1" d="M6.43,8.15a2.84,2.84,0,0,1-.67,1.42.14.14,0,0,1-.19,0,2.88,2.88,0,0,1-.66-1.42"/><path class="cls-1" d="M7,8.39a6,6,0,0,1-1.27,2.67.13.13,0,0,1-.18,0A6,6,0,0,1,4.3,8.39"/></svg>