<svg id="Layer_1" data-name="Layer 1" xmlns="http://www.w3.org/2000/svg" viewBox="0 0 11.34 11.34"><defs><style>.cls-1{fill:none;stroke:#f6f4f9;stroke-linecap:round;stroke-linejoin:round;stroke-width:0.28px;}</style></defs><ellipse class="cls-1" cx="5.67" cy="5.67" rx="2.07" ry="2.07"/><path class="cls-1" d="M9.37,5.67a4.38,4.38,0,0,0,0-.52.27.27,0,0,1,.13-.28l1.25-.76a.28.28,0,0,0,.09-.38L9.77,2a.28.28,0,0,0-.38-.09l-1.26.76a.27.27,0,0,1-.31,0,4.38,4.38,0,0,0-.7-.4A.27.27,0,0,1,6.94,2V.54A.28.28,0,0,0,6.67.26h-2A.28.28,0,0,0,4.4.54V2a.27.27,0,0,1-.18.25,4.38,4.38,0,0,0-.7.4.27.27,0,0,1-.31,0L2,1.93A.28.28,0,0,0,1.57,2l-1,1.71a.28.28,0,0,0,.09.38l1.25.76A.27.27,0,0,1,2,5.15a4.38,4.38,0,0,0,0,.52,4.55,4.55,0,0,0,0,.52.27.27,0,0,1-.13.28L.63,7.22a.29.29,0,0,0-.09.39l1,1.71A.28.28,0,0,0,2,9.41l1.26-.76a.29.29,0,0,1,.31,0,3.77,3.77,0,0,0,.7.41.27.27,0,0,1,.18.25V10.8a.27.27,0,0,0,.27.27h2a.27.27,0,0,0,.27-.27V9.32a.27.27,0,0,1,.18-.25,3.77,3.77,0,0,0,.7-.41.29.29,0,0,1,.31,0l1.26.76a.28.28,0,0,0,.38-.09l1-1.71a.29.29,0,0,0-.09-.39L9.46,6.47a.27.27,0,0,1-.13-.28A4.55,4.55,0,0,0,9.37,5.67Z"/></svg>