<svg id="Layer_1" width='20px' height='30px' data-name="Layer 1" xmlns="http://www.w3.org/2000/svg" viewBox="0 0 11.34 11.34"><defs><style>.cls-1{fill:none;stroke:#f6f4f9;stroke-linecap:round;stroke-linejoin:round;stroke-width:0.28px;}</style></defs><path class="cls-1" d="M7.86,4.84,10.32,3a.47.47,0,0,1,.75.38V8a.48.48,0,0,1-.75.38L8.21,6.8A.22.22,0,0,0,7.86,7V8.24a.64.64,0,0,1-.64.64H.91a.64.64,0,0,1-.64-.64V3.1a.64.64,0,0,1,.64-.64H7.22a.64.64,0,0,1,.64.64V5.59"/><path class="cls-1" d="M5.71,5.84,3.35,7.2A.19.19,0,0,1,3.06,7V4.3a.19.19,0,0,1,.29-.16L5.71,5.5A.2.2,0,0,1,5.71,5.84Z"/></svg>