<svg id="Layer_1" data-name="Layer 1" xmlns="http://www.w3.org/2000/svg" viewBox="0 0 14.17 14.17"><defs><style>.cls-1{fill:none;stroke:#221e28;stroke-linecap:round;stroke-linejoin:round;stroke-width:0.35px;}</style></defs><path class="cls-1" d="M1.11,11.46a1.89,1.89,0,0,1-.6.16,3.45,3.45,0,0,0,2.15,2.12A1.25,1.25,0,0,1,2.93,13"/><path class="cls-1" d="M3.69,12.45a2.4,2.4,0,0,0-.37,1.46l.8,0s.08-.43.32-1.28c.38-1.3,2.49-2.13.86-3.75s-2.75.16-3.49.77a1.86,1.86,0,0,1-1.49.44,1.78,1.78,0,0,0,0,.88c0,.15,1.66-.18,1.66-.18"/><path class="cls-1" d="M6.36,8.88l-.61.61a2.4,2.4,0,0,0-.45-.6,2.14,2.14,0,0,0-.54-.42l.59-.6Z"/><polygon class="cls-1" points="6.11 8.63 5.6 8.12 13.42 0.25 13.93 0.76 6.11 8.63"/><path class="cls-1" d="M1.06,12.55A2.49,2.49,0,0,0,2,12"/></svg>