<svg id="Layer_1" data-name="Layer 1" xmlns="http://www.w3.org/2000/svg" viewBox="0 0 14.17 14.17"><defs><style>.cls-1{fill:none;stroke:#221e28;stroke-linecap:round;stroke-linejoin:round;stroke-width:0.35px;}</style></defs><path class="cls-1" d="M5.25,8.49l.64,2.35a.22.22,0,0,1-.32.25L.36,8.47a.2.2,0,0,1,0-.36L5.59,5.49a.22.22,0,0,1,.31.25L5.58,7a.25.25,0,0,0,.24.32H6.2a5.5,5.5,0,0,0,5.54-4.26,4.57,4.57,0,0,1,.12,1c0,2.77-2.23,5.21-5.66,5.29-.24,0-.47,0-.69,0"/><path class="cls-1" d="M2.72,10.37v3.37a.2.2,0,0,1-.19.19h-1a.19.19,0,0,1-.19-.19V9.64"/><path class="cls-1" d="M1.34,6.9V.71A.45.45,0,0,1,1.8.25H13.74a.19.19,0,0,1,.19.19v1a.2.2,0,0,1-.19.19H3.18a.45.45,0,0,0-.46.46v4.1"/></svg>