<svg id="Layer_1" data-name="Layer 1" xmlns="http://www.w3.org/2000/svg" viewBox="0 0 14.17 14.17"><defs><style>.cls-1{fill:none;stroke:#221e28;stroke-linecap:round;stroke-linejoin:round;stroke-width:0.35px;}</style></defs><polyline class="cls-1" points="12.14 13.32 6.13 13.32 6.13 11.36 11.34 11.36 12.14 11.36 12.14 10.55 13.03 11.39 13.93 12.24 13.03 13.08 12.14 13.93 12.14 12.24"/><polyline class="cls-1" points="2.04 9.84 8.04 9.84 8.04 7.88 2.83 7.88 2.04 7.88 2.04 7.07 1.14 7.91 0.25 8.76 1.14 9.6 2.04 10.44 2.04 8.76"/><path class="cls-1" d="M5.27,6.62H4.42L6.59.25h1L9.75,6.62H8.87l-.68-2H5.93L5.55,5.77M8,4,7.4,2.14c-.14-.42-.24-.8-.33-1.16h0c-.1.37-.2.76-.32,1.15L6.1,4Z"/></svg>