<svg id="Layer_1" data-name="Layer 1" xmlns="http://www.w3.org/2000/svg" viewBox="0 0 14.17 14.17"><defs><style>.cls-1{fill:none;stroke:#221e28;stroke-linecap:round;stroke-linejoin:round;stroke-width:0.35px;}</style></defs><path class="cls-1" d="M12.59,6.73a5.51,5.51,0,0,1-9,4.58"/><path class="cls-1" d="M2.37,9.93a4,4,0,0,1-.2-.35A5.51,5.51,0,1,1,12,4.6c.07.14.11.22.17.36"/><path class="cls-1" d="M11.32,2.8c1.25-.06,2.16.23,2.49.88.73,1.45-1.69,4.14-5.4,6s-7.32,2.24-8,.79C0,9.84.34,8.94,1.12,8"/><path class="cls-1" d="M12,3.54a.74.74,0,0,1,.57.35c.44.86-1.84,2.61-4.94,4.18s-5.87,2.37-6.3,1.52a.76.76,0,0,1,.05-.68"/><path class="cls-1" d="M2.82,5.12a2.55,2.55,0,0,0,2.52.26C6.79,4.78,6,3,8.1,2.43"/><path class="cls-1" d="M2.38,7.25a3.87,3.87,0,0,0,3.7-.15C8.18,6,7.45,4.17,10.21,3.36"/><path class="cls-1" d="M7.08,11.92s-.62-.71,1-1.39"/><path class="cls-1" d="M9,6.48a2.4,2.4,0,0,1,2.14-2"/><path class="cls-1" d="M9.36,11.47s-.63-.53.44-1.15S10.88,9,10.88,9"/></svg>