<svg id="Layer_1" data-name="Layer 1" xmlns="http://www.w3.org/2000/svg" viewBox="0 0 19.84 19.84"><defs><style>.cls-1{fill:none;stroke:#f6f4f9;stroke-linecap:round;stroke-linejoin:round;stroke-width:0.5px;}</style></defs><path class="cls-1" d="M12.38,11.76,14,13.26a.1.1,0,0,0,.17-.08l-.16-3a.63.63,0,0,0-.48-.58l-.63-.14a.37.37,0,0,1-.28-.38A12.92,12.92,0,0,0,10.06.5a.18.18,0,0,0-.28,0A13,13,0,0,0,7.27,9.1.37.37,0,0,1,7,9.48l-.63.14a.64.64,0,0,0-.48.58l-.16,3a.1.1,0,0,0,.17.08l1.58-1.5a.47.47,0,0,1,.33-.14H12A.49.49,0,0,1,12.38,11.76Z"/><circle class="cls-1" cx="9.92" cy="4.97" r="0.85"/><path class="cls-1" d="M8.78,2.23a2,2,0,0,0,2.28,0"/><path class="cls-1" d="M11.11,12.73a4.47,4.47,0,0,1-1,2.2.22.22,0,0,1-.3,0,4.47,4.47,0,0,1-1-2.2"/><path class="cls-1" d="M12.05,13.1s-.6,2.89-2,4.15a.21.21,0,0,1-.29,0c-1.39-1.26-2-4.15-2-4.15"/><path class="cls-1" d="M2.35,18.11a2.27,2.27,0,0,1,3.4,1,1.44,1.44,0,0,1,2.16.16,2.34,2.34,0,0,1,3.86.06s1-1.31,2.53.07c0,0,1.23-2,2.94-.62"/><path class="cls-1" d="M13.21,16.05s.55-1.49,2.39-.45A2.4,2.4,0,0,1,19.41,15"/><path class="cls-1" d="M6.87,16.78a.9.9,0,0,0-1.37-.2,1.39,1.39,0,0,0-2.1-.26"/><path class="cls-1" d="M5.88,15a2.32,2.32,0,0,0-3.16-.35,2.13,2.13,0,0,0-2.29-.82"/></svg>