<svg id="Layer_1" data-name="Layer 1" xmlns="http://www.w3.org/2000/svg" viewBox="0 0 14.17 14.17"><defs><style>.cls-1{fill:#f6f4f9;}.cls-2{fill:none;stroke:#f6f4f9;stroke-linecap:round;stroke-linejoin:round;stroke-width:0.35px;}</style></defs><circle class="cls-1" cx="9.05" cy="5.44" r="0.26"/><circle class="cls-1" cx="8.1" cy="5.44" r="0.26"/><path class="cls-2" d="M6.89,5.23a1.22,1.22,0,0,0,.52.29l0,.17-.08.15A4,4,0,0,0,6.88,8.6l.18.83a.75.75,0,0,1-.21.7l-.2.2a.76.76,0,0,0-.13.92l0,.05a1,1,0,0,1,0,.92l-.11.21a1.1,1.1,0,0,0,0,.92l.15.37a1.82,1.82,0,0,0-.45.1,1.46,1.46,0,0,1-.58.11,1.66,1.66,0,0,1-1.22-.55,1.64,1.64,0,0,0-1-.55A1.6,1.6,0,0,1,1.9,11.6a1.64,1.64,0,0,0-.67-1,1.62,1.62,0,0,1-.7-1.35,1.27,1.27,0,0,1,0-.39,1.69,1.69,0,0,0,0-.38,1.57,1.57,0,0,0-.19-.77A1.67,1.67,0,0,1,.66,5.9a1.59,1.59,0,0,0,.41-1.05v0a1.62,1.62,0,0,1,1-1.52,1.74,1.74,0,0,0,.74-.54,2.53,2.53,0,0,0,1.07,1.5,2.06,2.06,0,0,0,1.36.16,1.22,1.22,0,0,1,1.09.32Z"/><path class="cls-2" d="M13.93,6.16a1.57,1.57,0,0,1-.2.76.52.52,0,0,1-.06.13,8.63,8.63,0,0,0-1.38-1.74A1.44,1.44,0,0,0,11,4.86L9.73,5a.36.36,0,0,1-.4-.2.21.21,0,0,0-.17-.13,1.31,1.31,0,0,0-.39,0,1.28,1.28,0,0,1-1.12-.32l-.53-.5A1.24,1.24,0,0,0,6,3.58a2.08,2.08,0,0,1-1.37-.16A2.54,2.54,0,0,1,3.6,1.93h0c.06-.08.11-.16.16-.24A1.61,1.61,0,0,1,5.2.8h.2l.22,0A1.56,1.56,0,0,0,6.53.54,1.67,1.67,0,0,1,7.46.25a1.65,1.65,0,0,1,1,.3A1.51,1.51,0,0,0,9.52.81h.2a1.64,1.64,0,0,1,1.45.88,1.56,1.56,0,0,0,.88.77A1.64,1.64,0,0,1,13.1,4V4a1.56,1.56,0,0,0,.42,1.08A1.72,1.72,0,0,1,13.93,6.16Z"/><path class="cls-2" d="M13.86,9.24a1.42,1.42,0,0,1,0,.36,1.54,1.54,0,0,1-.65,1.26,1.49,1.49,0,0,0-.63.9,1.5,1.5,0,0,1-1.3,1.14,1.57,1.57,0,0,0-1,.51,1.53,1.53,0,0,1-1.14.52,1.56,1.56,0,0,1-.55-.1,1.37,1.37,0,0,0-.54-.1H8l-.14-.34a1.07,1.07,0,0,1,0-.86l.11-.2a.86.86,0,0,0,0-.85l0-.05a.71.71,0,0,1,.12-.86l.19-.18a.72.72,0,0,0,.19-.66L8.3,9a4.2,4.2,0,0,1,.37-2.58c.09-.16.09-.29.43-.24a1.15,1.15,0,0,0,.26,0,1.53,1.53,0,0,1,.36,0l.07,0,.07.06a.5.5,0,0,0,.22.21l.11,0h.06l1.17-.17.22,0,.23,0h0l.18,0a.09.09,0,0,1,.07,0,.35.35,0,0,1,.15.07.41.41,0,0,1,.11.07l.12.08.1.1a12.11,12.11,0,0,1,1,1.13c.11.15.21.32.31.48l0,0a1.62,1.62,0,0,0-.12.58A1.5,1.5,0,0,0,13.86,9.24Z"/><circle class="cls-2" cx="10.02" cy="2.58" r="0.64"/><circle class="cls-2" cx="4.47" cy="11.01" r="0.64"/><circle class="cls-2" cx="11.41" cy="10.65" r="0.64"/><circle class="cls-2" cx="10.02" cy="8.02" r="0.45"/><circle class="cls-2" cx="2.47" cy="5.72" r="0.45"/><circle class="cls-2" cx="5.11" cy="6.98" r="0.17"/><circle class="cls-2" cx="5.4" cy="2.08" r="0.17"/><circle class="cls-2" cx="12.07" cy="3.88" r="0.17"/><circle class="cls-2" cx="7.94" cy="6.46" r="0.09"/></svg>