<svg id="Layer_1" data-name="Layer 1" xmlns="http://www.w3.org/2000/svg" viewBox="0 0 14.17 14.17"><defs><style>.cls-1{fill:none;stroke:#f6f4f9;stroke-linecap:round;stroke-linejoin:round;stroke-width:0.35px;}</style></defs><circle class="cls-1" cx="4.63" cy="4.63" r="0.85"/><line class="cls-1" x1="4.63" y1="3.36" x2="4.63" y2="2.25"/><line class="cls-1" x1="4.63" y1="7.01" x2="4.63" y2="5.9"/><line class="cls-1" x1="3.36" y1="4.63" x2="2.25" y2="4.63"/><line class="cls-1" x1="7.01" y1="4.63" x2="5.9" y2="4.63"/><line class="cls-1" x1="3.73" y1="5.53" x2="2.95" y2="6.31"/><line class="cls-1" x1="6.31" y1="2.95" x2="5.53" y2="3.73"/><line class="cls-1" x1="5.53" y1="5.53" x2="6.31" y2="6.31"/><line class="cls-1" x1="2.95" y1="2.95" x2="3.73" y2="3.73"/><path class="cls-1" d="M11.76,10.55a2.21,2.21,0,0,1-1.79.91,2.23,2.23,0,1,1,1.56-3.81,1.64,1.64,0,0,0-.45-.05A1.67,1.67,0,0,0,9.3,9.13a1.67,1.67,0,0,0,1.78,1.53A1.83,1.83,0,0,0,11.76,10.55Z"/><path class="cls-1" d="M13.93,7.09a6.83,6.83,0,1,1-2-4.84A6.84,6.84,0,0,1,13.93,7.09Z"/><line class="cls-1" x1="11.92" y1="2.25" x2="2.32" y2="11.85"/></svg>