<svg id="Layer_1" data-name="Layer 1" xmlns="http://www.w3.org/2000/svg" viewBox="0 0 14.17 14.17"><defs><style>.cls-1{fill:#f6f4f9;}.cls-2{fill:none;stroke:#f6f4f9;stroke-linecap:round;stroke-linejoin:round;stroke-width:0.35px;}</style></defs><path class="cls-1" d="M11.93,2.24,2.25,11.92a6.84,6.84,0,0,0,9.68-9.68Zm0,8.48a2.36,2.36,0,0,1-1.93,1,2.4,2.4,0,1,1,1.68-4.1.17.17,0,0,1,0,.21.16.16,0,0,1-.19.08,1.7,1.7,0,0,0-.41,0A1.52,1.52,0,0,0,9.45,9.21a1.51,1.51,0,0,0,1.61,1.35,1.79,1.79,0,0,0,.62-.1.17.17,0,0,1,.2,0A.17.17,0,0,1,11.88,10.72Z"/><path class="cls-1" d="M11.06,10.91h.17A2,2,0,1,1,10,7.26a2,2,0,0,1,1,.24A1.9,1.9,0,0,0,9.08,9.27,1.82,1.82,0,0,0,11.06,10.91Z"/><path class="cls-2" d="M13.93,7.09a6.83,6.83,0,1,1-2-4.84A6.84,6.84,0,0,1,13.93,7.09Z"/><line class="cls-2" x1="11.92" y1="2.25" x2="2.32" y2="11.85"/><circle class="cls-2" cx="4.76" cy="4.68" r="0.97"/><line class="cls-2" x1="4.76" y1="3.23" x2="4.76" y2="1.96"/><line class="cls-2" x1="4.76" y1="7.4" x2="4.76" y2="6.14"/><line class="cls-2" x1="3.3" y1="4.68" x2="2.04" y2="4.68"/><line class="cls-2" x1="7.48" y1="4.68" x2="6.21" y2="4.68"/><line class="cls-2" x1="3.73" y1="5.71" x2="2.83" y2="6.61"/><line class="cls-2" x1="6.68" y1="2.76" x2="5.79" y2="3.65"/><line class="cls-2" x1="5.79" y1="5.71" x2="6.68" y2="6.61"/><line class="cls-2" x1="2.83" y1="2.76" x2="3.73" y2="3.65"/></svg>