<svg id="Layer_1" data-name="Layer 1" xmlns="http://www.w3.org/2000/svg" viewBox="0 0 14.17 14.17"><defs><style>.cls-1{fill:none;stroke:#f6f4f9;stroke-linecap:round;stroke-linejoin:round;stroke-width:0.35px;}</style></defs><path class="cls-1" d="M8.55,2.41c-.2-.45-.24-.81-.06-1,.33-.33,1.32.09,2.34,1"/><path class="cls-1" d="M12.1,3.7c.71.92,1,1.75.72,2.05S11.14,5.49,10,4.3"/><path class="cls-1" d="M12.82,5.75c-.39.4-1.63,1.25-3.52-.64C7.24,3,8.1,1.81,8.49,1.42"/><path class="cls-1" d="M11.86,4.06c.48.6.71,1.09.57,1.24s-1.16-.4-2.12-1.37S8.74,2,9,1.81s.78.18,1.5.79"/><polyline class="cls-1" points="12.12 2.56 11.87 3.04 11.38 3.99"/><polyline class="cls-1" points="10.48 3.09 11.42 2.6 11.91 2.34"/><circle class="cls-1" cx="12.32" cy="2.15" r="0.45"/><path class="cls-1" d="M6.14,3.61l-1-1L3.89,1.36l-1-1a.42.42,0,0,0-.6,0l-1,1-1,1a.43.43,0,0,0,0,.6l1,1L2.62,5.19l1,1a.42.42,0,0,0,.6,0l1-1,1-1A.42.42,0,0,0,6.14,3.61Z"/><line class="cls-1" x1="1.75" y1="1.77" x2="4.76" y2="4.78"/><line class="cls-1" x1="3.39" y1="1.87" x2="2.62" y2="2.64"/><line class="cls-1" x1="4.66" y1="3.14" x2="3.89" y2="3.91"/><line class="cls-1" x1="2.11" y1="3.14" x2="1.37" y2="3.89"/><line class="cls-1" x1="3.39" y1="4.42" x2="2.65" y2="5.16"/><path class="cls-1" d="M13.78,11.25l-1-1L11.53,9l-1-1A.42.42,0,0,0,10,8L9,9,8,10a.42.42,0,0,0,0,.6l1,1,1.27,1.28,1,1a.42.42,0,0,0,.6,0l1-1,1-1A.43.43,0,0,0,13.78,11.25Z"/><line class="cls-1" x1="9.39" y1="9.41" x2="12.4" y2="12.42"/><line class="cls-1" x1="11.02" y1="9.51" x2="10.25" y2="10.28"/><line class="cls-1" x1="12.29" y1="10.78" x2="11.53" y2="11.55"/><line class="cls-1" x1="9.75" y1="10.78" x2="9.01" y2="11.52"/><line class="cls-1" x1="11.02" y1="12.06" x2="10.28" y2="12.8"/><polyline class="cls-1" points="5.53 4.95 6.23 5.64 5.62 6.25 4.93 5.56"/><rect class="cls-1" x="8.07" y="8.2" width="1.07" height="0.85" transform="translate(8.62 -3.56) rotate(45.01)"/><path class="cls-1" d="M6.25,9.36l.2.2a.32.32,0,0,0,.46,0L9.56,6.91a.32.32,0,0,0,0-.46l-.79-.8"/><path class="cls-1" d="M8.93,4.77l-.52.52h0l-.69-.68a.32.32,0,0,0-.46,0L4.61,7.26a.32.32,0,0,0,0,.46l.2.2h0l-.28.28a.33.33,0,0,0,0,.47l1,1a.33.33,0,0,0,.47,0l.28-.28-1-1"/><polyline class="cls-1" points="8.81 5.7 8.88 5.76 9.39 5.25"/><path class="cls-1" d="M12.5.93a.78.78,0,0,1,.88.65"/><path class="cls-1" d="M12.69.28a1.09,1.09,0,0,1,.26,0,1,1,0,0,1,1,1"/></svg>