<svg id="Layer_1" data-name="Layer 1" xmlns="http://www.w3.org/2000/svg" viewBox="0 0 14.17 14.17"><defs><style>.cls-1{fill:none;stroke:#f6f4f9;stroke-linecap:round;stroke-linejoin:round;stroke-width:0.35px;}</style></defs><path class="cls-1" d="M3.52,8.91l.54-1.3S1.8,4.82,4.48,2.67c2-1.63,5.77-.55,6.2,2.05.35,2.09-.77,4.44-2.5,4.46S6.6,7.67,6.92,6.68s1.21-2.72-.5-3-1.69,2-1.53,2.93.07.9-.29,2.18a20.14,20.14,0,0,0-.66,2.91c0,.47-.11,2.09.16,2.25s1.11-1,1.38-1.8.81-2.52.81-2.52a2.33,2.33,0,0,0,2.59.94c1.93-.31,3.42-1.9,3.67-4.82S10.79.49,7.41.26A5.15,5.15,0,0,0,1.62,4.93,4.34,4.34,0,0,0,3.52,8.91Z"/></svg>