<svg id="Layer_1" data-name="Layer 1" xmlns="http://www.w3.org/2000/svg" viewBox="0 0 14.17 14.17"><defs><style>.cls-1{fill:none;stroke:#f6f4f9;stroke-linecap:round;stroke-linejoin:round;stroke-width:0.35px;}</style></defs><path class="cls-1" d="M9.77,4.75V9.61a4.32,4.32,0,0,1-4.32,4.32h0A4.33,4.33,0,0,1,1.13,9.61V9.36A4.17,4.17,0,0,1,5.3,5.19h.76V7.7a1.2,1.2,0,0,0-.71-.16h0a1.81,1.81,0,0,0-1.81,1.8v.22a1.94,1.94,0,0,0,2,1.94h0A1.94,1.94,0,0,0,7.43,9.56V.25H9.77A3.9,3.9,0,0,0,13,3.47l.09,0V5.81A5.68,5.68,0,0,1,9.77,4.75Z"/></svg>