<svg id="Layer_1" data-name="Layer 1" xmlns="http://www.w3.org/2000/svg" xmlns:xlink="http://www.w3.org/1999/xlink" viewBox="0 0 807.87 425.2"><defs><style>.cls-1,.cls-12,.cls-13,.cls-14,.cls-15,.cls-16,.cls-17,.cls-18,.cls-19,.cls-21,.cls-23,.cls-24,.cls-25,.cls-26,.cls-27,.cls-5,.cls-6{fill:none;}.cls-2{clip-path:url(#clip-path);}.cls-3{fill:#0f1d28;}.cls-22,.cls-4{fill:#7209b7;}.cls-4{opacity:0.64;}.cls-27,.cls-5{stroke:#f99900;}.cls-15,.cls-16,.cls-19,.cls-21,.cls-23,.cls-24,.cls-25,.cls-26,.cls-27,.cls-5,.cls-6{stroke-miterlimit:10;}.cls-25,.cls-6{stroke:#4361ee;}.cls-6{stroke-width:3px;}.cls-7{fill:#57c4e5;}.cls-8{fill:#f72585;}.cls-9{fill:#f99900;}.cls-10{fill:#f6f4f9;}.cls-11{fill:#4361ee;}.cls-12,.cls-13,.cls-14,.cls-17,.cls-18{stroke:#f6f4f9;stroke-linecap:round;stroke-linejoin:round;}.cls-12,.cls-14,.cls-17{stroke-width:2px;}.cls-12{stroke-dasharray:12;}.cls-13{stroke-width:2.47px;}.cls-15,.cls-16,.cls-21{stroke:#f72585;}.cls-15{stroke-width:4.95px;}.cls-16{stroke-width:3.38px;}.cls-17{stroke-dasharray:11.96 11.96;}.cls-18{stroke-width:2.2px;}.cls-19,.cls-24{stroke:#211e26;}.cls-19{stroke-width:3.72px;}.cls-20{fill:#3a0ca3;}.cls-21,.cls-23,.cls-25,.cls-26,.cls-27{stroke-width:2.91px;}.cls-23{stroke:#3a0ca3;}.cls-24{stroke-width:2.64px;}.cls-26{stroke:#57c4e5;}</style><clipPath id="clip-path"><rect class="cls-1" width="807.87" height="425.2"/></clipPath></defs><g class="cls-2"><g id="back"><rect class="cls-3" width="807.87" height="425.2"/><path class="cls-4" d="M-25.66,121.48s115.59,30.5,113,62.38S9.49,227.56,68.31,290.58s214.7,99.19,202.41,133S103.3,437.92,103.3,437.92s39.7-16.83,14.39-46.15-171-110.64-100.36-157.34c94.14-62.21-47.56-98.31-47.56-98.31Z"/><path class="cls-5" d="M-33.2,131.36S78.23,154.48,73.93,184.82s-32.66,42.71-41.87,84.93c-12.44,57,70.76,91.09,142,131.16s70.34,71.78,70.34,71.78"/><path class="cls-6" d="M-48.8,131.36S62.64,154.48,58.33,184.82s-32.66,42.71-41.86,84.93c-12.44,57,70.76,91.09,142,131.16s70.34,71.78,70.34,71.78"/><path class="cls-4" d="M0,85s160.32-7.11,169.78,34.77S87.44,206.93,188,264.19s314.77,41.31,312.51,89.49S291.72,439,291.72,439s44.14-37.44,0-64.89S28.31,300.7,100.23,212.6C196,95.26,0,105.62,0,105.62Z"/><path class="cls-5" d="M0,97.73S135,97,137.48,133.3s-27.34,57.62-27.6,108.87c-.35,69.22,104.58,88.21,197.08,117.11s99.32,65.92,99.32,65.92"/><path class="cls-5" d="M28.68,91.76s135-.69,137.49,35.57S138.82,185,138.56,236.2c-.35,69.23,104.58,88.21,197.08,117.12S435,419.23,435,419.23"/><path class="cls-6" d="M0,90.16S90.55,89.31,126.28,107s26.44,31.07,13.93,68.91S91.48,276.25,216,303.05s214.06,31.53,247.61,61"/><path class="cls-7" d="M641.23,207.88s0,13,13,13c0,0-13-.13-13,12.73,0,0,0-12.86-12.71-12.86C628.52,220.73,641.23,220.86,641.23,207.88Z"/><path class="cls-8" d="M603.45,7.71s0,13,13,13c0,0-13-.12-13,12.73,0,0,0-12.85-12.71-12.85C590.73,20.57,603.45,20.69,603.45,7.71Z"/><path class="cls-9" d="M732.06,127s0,13,13,13c0,0-13-.12-13,12.73,0,0,0-12.85-12.71-12.85C719.35,139.9,732.06,140,732.06,127Z"/><circle class="cls-8" cx="772.73" cy="35.45" r="17.54"/><path class="cls-8" d="M482.08,23.69s0,18.82,18.84,18.82c0,0-18.84-.18-18.84,18.46,0,0,0-18.64-18.43-18.64C463.65,42.33,482.08,42.51,482.08,23.69Z"/><path class="cls-10" d="M146.55,198.55s0,17.9,17.92,17.9c0,0-17.92-.17-17.92,17.56,0,0,0-17.73-17.53-17.73C129,216.28,146.55,216.45,146.55,198.55Z"/><path class="cls-9" d="M210.77,336s0,13,13,13c0,0-13-.12-13,12.73,0,0,0-12.85-12.71-12.85C198.06,348.82,210.77,348.94,210.77,336Z"/><path class="cls-7" d="M352.51,71.8s0,13,13,13c0,0-13-.12-13,12.73,0,0,0-12.85-12.71-12.85C339.79,84.66,352.51,84.78,352.51,71.8Z"/><path class="cls-7" d="M313.55,14.91s0,7.67,7.68,7.67c0,0-7.68-.07-7.68,7.52,0,0,0-7.59-7.5-7.59C306.05,22.51,313.55,22.58,313.55,14.91Z"/><path class="cls-9" d="M223.68,59.43s0,7.67,7.68,7.67c0,0-7.68-.08-7.68,7.52,0,0,0-7.6-7.5-7.6C216.18,67,223.68,67.1,223.68,59.43Z"/><path class="cls-10" d="M443.17,7.45s0,7.67,7.68,7.67c0,0-7.68-.08-7.68,7.51,0,0,0-7.59-7.51-7.59C435.66,15,443.17,15.12,443.17,7.45Z"/><path class="cls-10" d="M460.6,191.06s0,7.67,7.67,7.67c0,0-7.68-.07-7.68,7.52,0,0,0-7.59-7.5-7.59C453.09,198.66,460.6,198.73,460.6,191.06Z"/><path class="cls-10" d="M430.09,102.93s0,7.67,7.67,7.67c0,0-7.67-.07-7.67,7.52,0,0,0-7.59-7.51-7.59C422.58,110.53,430.09,110.6,430.09,102.93Z"/><circle class="cls-10" cx="438.27" cy="28.98" r="2.06"/><circle class="cls-10" cx="287.55" cy="10.93" r="2.06"/><circle class="cls-10" cx="479.72" cy="9.08" r="2.06"/><circle class="cls-10" cx="354.66" cy="106.05" r="2.06"/><circle class="cls-10" cx="508.61" cy="299.38" r="2.06"/><circle class="cls-10" cx="610.85" cy="225.35" r="2.06"/><circle class="cls-10" cx="578.81" cy="214.3" r="2.06"/><circle class="cls-10" cx="153.31" cy="188.46" r="2.06"/><circle class="cls-10" cx="105.2" cy="186.4" r="2.06"/><circle class="cls-10" cx="20.01" cy="362.08" r="2.06"/><circle class="cls-10" cx="20.51" cy="219.83" r="2.06"/><circle class="cls-10" cx="95.54" cy="129.32" r="2.06"/><circle class="cls-7" cx="424.64" cy="12.99" r="2.06"/><circle class="cls-7" cx="317.37" cy="10.93" r="0.97"/><circle class="cls-7" cx="390.96" cy="98.74" r="0.97"/><circle class="cls-7" cx="326.39" cy="49.2" r="0.97"/><circle class="cls-7" cx="327.36" cy="98.13" r="0.97"/><circle class="cls-7" cx="383.2" cy="116.23" r="0.97"/><circle class="cls-7" cx="625.9" cy="231.87" r="0.97"/><circle class="cls-7" cx="395.08" cy="130" r="2.91"/><circle class="cls-7" cx="470.3" cy="307.85" r="2.91"/><circle class="cls-7" cx="549.79" cy="193.96" r="2.91"/><circle class="cls-7" cx="476.81" cy="96.16" r="2.91"/><circle class="cls-7" cx="671.79" cy="57.75" r="2.91"/><circle class="cls-7" cx="455.27" cy="85.62" r="0.97"/><circle class="cls-7" cx="459.71" cy="106.82" r="0.97"/><circle class="cls-8" cx="434.16" cy="21.18" r="0.97"/><circle class="cls-8" cx="420.47" cy="98.74" r="0.97"/><circle class="cls-8" cx="472.24" cy="74.49" r="0.97"/><circle class="cls-8" cx="415.96" cy="118.67" r="2.81"/><circle class="cls-8" cx="713.5" cy="225.35" r="2.81"/><circle class="cls-8" cx="501.78" cy="204.33" r="2.81"/><circle class="cls-8" cx="473.21" cy="28.98" r="0.97"/><circle class="cls-8" cx="389.99" cy="110.53" r="0.97"/><circle class="cls-8" cx="611.13" cy="241.78" r="0.97"/><circle class="cls-8" cx="296.89" cy="102.93" r="0.97"/><circle class="cls-8" cx="456.19" cy="167.46" r="0.97"/><circle class="cls-8" cx="471.27" cy="118.67" r="0.97"/><circle class="cls-8" cx="499.35" cy="28.98" r="1.57"/><circle class="cls-8" cx="409.79" cy="139.11" r="0.97"/><circle class="cls-8" cx="374.07" cy="102.93" r="0.97"/><circle class="cls-8" cx="331.72" cy="20.2" r="0.97"/><circle class="cls-8" cx="361.26" cy="10.93" r="0.97"/><circle class="cls-10" cx="434.16" cy="6.82" r="0.97"/><circle class="cls-10" cx="500.51" cy="14.91" r="0.97"/><circle class="cls-10" cx="444.23" cy="81.09" r="0.97"/><circle class="cls-10" cx="474.18" cy="58.24" r="0.97"/><circle class="cls-10" cx="403.94" cy="110.53" r="0.97"/><circle class="cls-10" cx="594.06" cy="223.56" r="0.97"/><circle class="cls-10" cx="670.26" cy="183.2" r="2.06"/><circle class="cls-7" cx="685.3" cy="189.72" r="0.97"/><circle class="cls-8" cx="670.53" cy="199.63" r="0.97"/><circle class="cls-10" cx="653.47" cy="181.41" r="0.97"/><circle class="cls-10" cx="662.47" cy="256.87" r="2.06"/><circle class="cls-7" cx="651.36" cy="244.81" r="0.97"/><circle class="cls-8" cx="668.87" cy="241.74" r="0.97"/><circle class="cls-10" cx="677.09" cy="265.31" r="0.97"/><circle class="cls-10" cx="722.84" cy="200.22" r="2.06"/><circle class="cls-7" cx="711.73" cy="188.16" r="0.97"/><circle class="cls-8" cx="729.24" cy="185.09" r="0.97"/><circle class="cls-10" cx="737.46" cy="208.66" r="0.97"/><circle class="cls-10" cx="434.16" cy="149.2" r="2.06"/><circle class="cls-10" cx="435.13" cy="220.73" r="2.06"/><circle class="cls-7" cx="456.19" cy="126.91" r="0.97"/><circle class="cls-8" cx="473.7" cy="123.84" r="0.97"/><circle class="cls-8" cx="524.4" cy="309.36" r="0.97"/><circle class="cls-8" cx="526.84" cy="314.53" r="0.97"/><circle class="cls-10" cx="481.92" cy="147.41" r="0.97"/><circle class="cls-10" cx="391.27" cy="258.01" r="2.06"/><circle class="cls-7" cx="378.69" cy="227.09" r="0.97"/><circle class="cls-8" cx="411.19" cy="224.53" r="0.97"/><circle class="cls-10" cx="449.96" cy="227.41" r="0.97"/><circle class="cls-10" cx="340.3" cy="124.52" r="0.97"/><path class="cls-10" d="M80.87,258.27s-7.49-1.62-9.11,5.89c0,0,1.69-7.49-5.73-9.09,0,0,7.42,1.6,9-5.74C75,249.33,73.38,256.65,80.87,258.27Z"/><path class="cls-10" d="M287,401.61s-7.65.44-7.21,8.1c0,0-.37-7.67-7.95-7.23,0,0,7.58-.44,7.15-7.93C279,394.55,279.34,402.05,287,401.61Z"/><path class="cls-8" d="M94.66,401.61s-7.65.44-7.21,8.1c0,0-.37-7.67-8-7.23,0,0,7.58-.44,7.15-7.93C86.65,394.55,87,402.05,94.66,401.61Z"/><path class="cls-7" d="M20.16,227s-7.66,0-7.66,7.67c0,0,.07-7.67-7.52-7.67,0,0,7.59,0,7.59-7.51C12.57,219.5,12.5,227,20.16,227Z"/><path class="cls-7" d="M369.82,293.46s-7.67,0-7.67,7.67c0,0,.08-7.67-7.51-7.67,0,0,7.59,0,7.59-7.51C362.23,286,362.15,293.46,369.82,293.46Z"/><path class="cls-7" d="M188.5,138.06s-7.66,0-7.66,7.67c0,0,.07-7.68-7.52-7.68,0,0,7.59,0,7.59-7.5C180.91,130.55,180.84,138.06,188.5,138.06Z"/><circle class="cls-7" cx="91.92" cy="208.75" r="1.31"/><circle class="cls-7" cx="26.36" cy="191.77" r="1.31"/><circle class="cls-7" cx="196.45" cy="250.72" r="6.02"/><circle class="cls-7" cx="319.52" cy="288.58" r="2.82"/><circle class="cls-7" cx="168.01" cy="187.61" r="2.82"/><circle class="cls-7" cx="75.07" cy="208.75" r="1.31"/><circle class="cls-8" cx="86.99" cy="249.75" r="0.97"/><circle class="cls-8" cx="68.46" cy="241.14" r="2.81"/><circle class="cls-8" cx="20.16" cy="404.05" r="2.81"/><circle class="cls-8" cx="34.25" cy="127.6" r="2.81"/><circle class="cls-9" cx="18.77" cy="130.41" r="2.81"/><circle class="cls-10" cx="8.66" cy="111.5" r="2.81"/><circle class="cls-10" cx="168.01" cy="160.97" r="2.81"/><circle class="cls-10" cx="213.73" cy="25.75" r="2.81"/><circle class="cls-10" cx="271" cy="281.62" r="2.81"/><circle class="cls-10" cx="231.83" cy="364.01" r="2.81"/><circle class="cls-10" cx="164.47" cy="234.68" r="2.81"/><circle class="cls-9" cx="176.13" cy="244.23" r="2.81"/><circle class="cls-9" cx="374.11" cy="132.81" r="2.81"/><circle class="cls-9" cx="308.7" cy="116.23" r="2.81"/><circle class="cls-9" cx="173.32" cy="210.71" r="2.81"/><circle class="cls-9" cx="65.19" cy="278.81" r="2.81"/><circle class="cls-8" cx="36.29" cy="183.07" r="2.81"/><circle class="cls-8" cx="210.91" cy="272.1" r="2.81"/><circle class="cls-8" cx="316.7" cy="76.99" r="2.81"/><circle class="cls-8" cx="165.2" cy="52.97" r="2.81"/><circle class="cls-8" cx="551.77" cy="40.25" r="2.81"/><circle class="cls-8" cx="192.29" cy="106.05" r="2.81"/><circle class="cls-8" cx="243.32" cy="130" r="2.81"/><circle class="cls-8" cx="81.66" cy="213.37" r="2.66"/><circle class="cls-8" cx="187.07" cy="351.53" r="2.66"/><circle class="cls-8" cx="31.24" cy="205.64" r="1.31"/><circle class="cls-8" cx="30.78" cy="111.81" r="1.31"/><circle class="cls-8" cx="106.85" cy="132.47" r="1.31"/><circle class="cls-8" cx="95.15" cy="200.5" r="1.31"/><circle class="cls-10" cx="78.21" cy="237.43" r="1.98"/><circle class="cls-10" cx="161.33" cy="338.97" r="1.98"/><circle class="cls-8" cx="10.05" cy="324.1" r="2.66"/><circle class="cls-10" cx="6.59" cy="348.16" r="1.98"/><circle class="cls-10" cx="455.27" cy="21.54" r="0.97"/><circle class="cls-10" cx="460.68" cy="66.05" r="0.97"/><circle class="cls-10" cx="442.28" cy="37.65" r="0.97"/><circle class="cls-10" cx="394.98" cy="5.02" r="0.97"/><circle class="cls-10" cx="406.74" cy="7.91" r="0.97"/><circle class="cls-10" cx="448.11" cy="5.85" r="2.06"/><path class="cls-10" d="M640.75,19s0,7.67,7.67,7.67c0,0-7.68-.07-7.68,7.52,0,0,0-7.59-7.5-7.59C633.24,26.61,640.75,26.68,640.75,19Z"/><circle class="cls-10" cx="635.85" cy="40.54" r="2.06"/><circle class="cls-10" cx="545.49" cy="63.36" r="2.06"/><circle class="cls-7" cx="622.21" cy="24.55" r="2.06"/><circle class="cls-8" cx="631.73" cy="32.74" r="0.97"/><circle class="cls-10" cx="631.73" cy="18.38" r="0.97"/><circle class="cls-10" cx="652.84" cy="33.1" r="0.97"/><circle class="cls-10" cx="645.69" cy="17.41" r="2.06"/><path class="cls-10" d="M545.41,224.72s0,7.66,7.67,7.66c0,0-7.67-.07-7.67,7.52,0,0,0-7.59-7.51-7.59C537.9,232.31,545.41,232.38,545.41,224.72Z"/><circle class="cls-10" cx="540.51" cy="246.25" r="2.06"/><circle class="cls-10" cx="528.93" cy="187.61" r="2.06"/><circle class="cls-7" cx="522.69" cy="237.43" r="2.06"/><circle class="cls-7" cx="516.52" cy="219.5" r="2.06"/><circle class="cls-8" cx="536.39" cy="238.44" r="0.97"/><circle class="cls-10" cx="536.39" cy="224.09" r="0.97"/><circle class="cls-10" cx="557.5" cy="238.8" r="0.97"/><circle class="cls-10" cx="550.35" cy="223.12" r="2.06"/><path class="cls-10" d="M525.54,161.2s0,7.67,7.67,7.67c0,0-7.67-.07-7.67,7.52,0,0,0-7.59-7.51-7.59C518,168.8,525.54,168.87,525.54,161.2Z"/><circle class="cls-10" cx="520.64" cy="182.73" r="2.06"/><circle class="cls-7" cx="507" cy="166.74" r="2.06"/><circle class="cls-8" cx="516.52" cy="174.93" r="0.97"/><circle class="cls-10" cx="516.52" cy="160.57" r="0.97"/><circle class="cls-10" cx="537.63" cy="175.29" r="0.97"/><circle class="cls-10" cx="530.48" cy="159.6" r="2.06"/><path class="cls-10" d="M749.12,178.1s0,7.66,7.67,7.66c0,0-7.67-.07-7.67,7.52,0,0,0-7.59-7.51-7.59C741.61,185.69,749.12,185.76,749.12,178.1Z"/><circle class="cls-10" cx="741.83" cy="173.11" r="2.06"/><circle class="cls-7" cx="728.19" cy="157.12" r="2.06"/><circle class="cls-7" cx="700.71" cy="165.4" r="2.06"/><circle class="cls-8" cx="737.71" cy="165.31" r="0.97"/><circle class="cls-10" cx="737.71" cy="150.95" r="0.97"/><circle class="cls-10" cx="758.82" cy="165.67" r="0.97"/><circle class="cls-10" cx="751.67" cy="149.98" r="2.06"/><circle class="cls-10" cx="778.93" cy="184.79" r="2.06"/><circle class="cls-10" cx="756.06" cy="121.2" r="2.06"/><circle class="cls-10" cx="456.24" cy="76.55" r="2.06"/><circle class="cls-10" cx="379.28" cy="90.16" r="2.06"/><circle class="cls-10" cx="570.2" cy="22.63" r="2.06"/><circle class="cls-10" cx="702.77" cy="23.69" r="2.06"/><circle class="cls-10" cx="196" cy="132.47" r="2.06"/><circle class="cls-10" cx="273.29" cy="117.2" r="2.06"/><circle class="cls-10" cx="337.47" cy="52.99" r="2.06"/><circle class="cls-10" cx="331.72" cy="37.65" r="2.06"/><circle class="cls-10" cx="341.85" cy="7.08" r="2.06"/><circle class="cls-10" cx="407.71" cy="96.07" r="2.06"/><circle class="cls-10" cx="324.33" cy="17.1" r="2.06"/><circle class="cls-7" cx="175.77" cy="28.4" r="11.3"/><circle class="cls-9" cx="476.81" cy="272.1" r="19.3"/><path class="cls-9" d="M409.52,92.12S379.94,82,377.58,76c0,0,10,4.31,11.94,4.59,0,0-25-12.78-31.39-26.67s1.95-22.92,32.92-18c0,0-41-15.14-51.8,4.44,0,0,5.55-5.14,9-6,0,0-9.72,13.47,1.11,25.27a28.47,28.47,0,0,1-1.8-14.86S357,86.43,409.52,92.12Z"/><path class="cls-9" d="M370.08,40s-7.92,17.78,31.66,35.28a68.08,68.08,0,0,1-19.44-6.39S389.8,76,413.13,80.6c0,0-.55,2.22-8.75,0,0,0,5.28,4.16,33.89,5.41a82.52,82.52,0,0,1-43.33-6.66c-32.34-14.76-31.25-33.61-31.25-33.61s-3.06,2.36-2.22,6S357.58,37.4,370.08,40Z"/><path class="cls-9" d="M375.22,52s12.5,17.22,38.88,24.44,36.67-5.83,36.67-5.83-8.06,4.3-11.25,4.3c0,0,12.22-4.58,12.5-16.66,0,0-4.72,7.77-6.53,8.47,0,0,7.64-15.42,3.06-20.7,0,0,.28,25.42-26,24.86S375.22,52,375.22,52Z"/><path class="cls-9" d="M405.49,64.35s24.59,8.29,33.75-3.89c0,0-4.3,2.39-7.5,2.72,0,0,23.2-10.08-6.66-39.25,0,0,11,14.77,7.5,13.89-1.11-.28-15-23.75-34.45-27.64,0,0,11.67,6.39,13.61,11.39,0,0-29.72-17.78-55.13-17.78,0,0,60.53,11.73,71.94,40.84C436.6,65.18,405.49,64.35,405.49,64.35Z"/><path class="cls-9" d="M414.94,58.24s7.5-4.45.55-12.23S393,27,370.77,25.18a131.1,131.1,0,0,0-41.11,3.47s21.4-16.82,56.11-6.39A26,26,0,0,0,372.86,15s34.19,5.23,48.88,24.74C431.05,52.12,414.94,58.24,414.94,58.24Z"/></g><g id="planet"><path class="cls-11" d="M325.33,194.37c.1.48.19.95.28,1.43.17,1,.32,1.93.42,2.9,0,.27.07.55.09.83l.09.93c0,.38.05.75.07,1.13a40.38,40.38,0,0,1,0,4.4c0,.61-.06,1.22-.1,1.82s-.1,1.19-.17,1.78c0,.3-.07.62-.12.93v.08c-.05.37-.1.75-.17,1.13s-.13.81-.21,1.21l-.18.94-.33,1.45a1.6,1.6,0,0,0,0,.21c-.13.49-.26,1-.4,1.47,0,.09-.05.18-.07.27-.13.44-.26.87-.4,1.3-.08.23-.15.46-.22.69-.14.42-.29.85-.45,1.27s-.4,1.05-.61,1.56l-.3.73c-.14.33-.28.65-.43,1l-.18.4c-.23.48-.46,1-.7,1.42,0,.09-.08.18-.13.27-.26.51-.54,1-.83,1.53s-.61,1.07-.94,1.59-.49.79-.73,1.17c-.06.09-.13.18-.18.27-.26.4-.53.79-.8,1.17-.55.77-1.12,1.52-1.7,2.26a2.11,2.11,0,0,1-.19.23,45.07,45.07,0,0,1-4,4.38c-.23.23-.47.46-.72.68-.46.43-.94.86-1.42,1.27-.66.56-1.33,1.1-2,1.62a8.72,8.72,0,0,1-.71.53,47.14,47.14,0,0,1-6.64,4.06c-.28.15-.55.28-.83.41-.54.26-1.1.52-1.66.75-.36.17-.73.32-1.09.46l-.07,0c-.35.14-.69.28-1,.4-.63.24-1.26.46-1.9.66-.24.09-.49.17-.74.24s-.46.14-.7.21l-.58.16c-.33.1-.67.19-1,.27l-.88.22-1.19.27-1.15.22c-.67.12-1.33.24-2,.33a48.05,48.05,0,0,1-6.75.46c-.72,0-1.44,0-2.16-.06-.36,0-.73,0-1.08-.06l-1.08-.09c-1.06-.1-2.12-.24-3.17-.41h0a47.13,47.13,0,0,1-10.56-3,47.32,47.32,0,0,1-19.38-14.75c-.7-.91-1.39-1.85-2-2.81a46.49,46.49,0,0,1-4-7.31,47.89,47.89,0,0,1-3-9.37c-.06-.28-.12-.56-.17-.84a47.49,47.49,0,0,1,.61-20.61,48,48,0,0,1,7.11-15.53c.45-.64.92-1.29,1.4-1.91a47.33,47.33,0,0,1,11.8-10.85l.91-.57c.6-.37,1.22-.73,1.84-1.08l1-.51c.31-.17.63-.33,1-.49.64-.33,1.29-.63,2-.93a47.68,47.68,0,0,1,6.93-2.43l.63-.16.82-.2,1.1-.25c.55-.11,1.1-.22,1.66-.31s.93-.16,1.4-.22l.56-.08,1.62-.18c.42-.05.84-.08,1.25-.1l.26,0,1.17-.06c.15,0,.32,0,.49,0,.5,0,1,0,1.49,0s1,0,1.51,0h.19l1.53.08h0l1.45.13c1.19.12,2.38.28,3.55.5.37.07.74.13,1.12.22a4.24,4.24,0,0,1,.46.1c.45.08.89.19,1.33.3s1,.25,1.53.4l1.47.44.09,0c.48.16,1,.31,1.43.48l0,0h0a49.79,49.79,0,0,1,6.75,3l.93.51c1,.59,2,1.21,3,1.88l.16.1q.72.49,1.44,1c1,.71,1.93,1.47,2.85,2.27h0c.44.38.87.76,1.29,1.15a1.42,1.42,0,0,1,.13.12c.42.4.85.81,1.26,1.23s.86.87,1.28,1.32h0c1,1.07,1.91,2.18,2.79,3.33q.27.34.51.69l.58.78c.74,1.06,1.44,2.15,2.11,3.27l.45.79c.27.48.53,1,.79,1.46s.63,1.27.94,1.91a46.79,46.79,0,0,1,2,5.18l.33,1.06c.11.36.22.71.31,1.08s.2.73.29,1.09.12.47.18.71S325.25,194,325.33,194.37Z"/><path class="cls-9" d="M325.33,194.37c.1.48.19.95.28,1.43.17,1,.32,1.93.42,2.9,0,.27.07.55.09.83l.09.93c0,.38.05.75.07,1.13a40.38,40.38,0,0,1,0,4.4c0,.61-.06,1.22-.1,1.82s-.1,1.19-.17,1.78c0,.3-.07.62-.12.93v.08c-.05.37-.1.75-.17,1.13s-.13.81-.21,1.21l-.18.94-.33,1.45a1.6,1.6,0,0,0,0,.21c-.13.49-.26,1-.4,1.47,0,.09-.05.18-.07.27-.13.44-.26.87-.4,1.3-.08.23-.15.46-.22.69-.14.42-.29.85-.45,1.27s-.4,1.05-.61,1.56l-.3.73c-.14.33-.28.65-.43,1l-.18.4c-.23.48-.46,1-.7,1.42,0,.09-.08.18-.13.27-.26.51-.54,1-.83,1.53s-.61,1.07-.94,1.59-.49.79-.73,1.17c-.06.09-.13.18-.18.27-.26.4-.53.79-.8,1.17-.55.77-1.12,1.52-1.7,2.26a2.11,2.11,0,0,1-.19.23,45.07,45.07,0,0,1-4,4.38c-.23.23-.47.46-.72.68-.46.43-.94.86-1.42,1.27-.66.56-1.33,1.1-2,1.62a8.72,8.72,0,0,1-.71.53,47.14,47.14,0,0,1-6.64,4.06c-.28.15-.55.28-.83.41-.54.26-1.1.52-1.66.75-.36.17-.73.32-1.09.46l-.07,0c-.35.14-.69.28-1,.4-.63.24-1.26.46-1.9.66-.24.09-.49.17-.74.24s-.46.14-.7.21l-.58.16c-.33.1-.67.19-1,.27l-.88.22-1.19.27-1.15.22c-.67.12-1.33.24-2,.33a48.05,48.05,0,0,1-6.75.46c-.72,0-1.45,0-2.16-.06-.36,0-.73,0-1.08-.06l-1.08-.09c-1.06-.1-2.12-.24-3.17-.41a47.84,47.84,0,0,0,8.35-6.89,47.63,47.63,0,0,0,12.4-42.85c-.08-.37-.16-.73-.25-1.1a47.72,47.72,0,0,0-30.65-34.09h0a46.59,46.59,0,0,0-8.05-2.06l.91-.57c.6-.37,1.22-.73,1.84-1.08l1-.51c.31-.17.63-.33,1-.49.64-.33,1.29-.63,2-.93a47.68,47.68,0,0,1,6.93-2.43l.63-.16.82-.2,1.1-.25c.55-.11,1.1-.22,1.66-.31s.93-.16,1.4-.22l.56-.08,1.62-.18c.42-.05.84-.08,1.25-.1l.26,0,1.17-.06c.15,0,.32,0,.49,0,.5,0,1,0,1.49,0s1,0,1.51,0h.19l1.53.08h0l1.45.13c1.19.12,2.38.28,3.55.5.37.07.74.13,1.12.22a4.24,4.24,0,0,1,.46.1c.45.08.89.19,1.33.3s1,.25,1.53.4l1.47.44.09,0c.48.16,1,.31,1.43.48l0,0h0a49.79,49.79,0,0,1,6.75,3l.93.51c1,.59,2,1.21,3,1.88l.16.1q.72.49,1.44,1c1,.71,1.93,1.47,2.85,2.27h0c.44.38.87.76,1.29,1.15a1.42,1.42,0,0,1,.13.12c.42.4.85.81,1.26,1.23s.86.87,1.28,1.32h0c1,1.07,1.91,2.18,2.79,3.33q.27.34.51.69l.58.78c.74,1.06,1.44,2.15,2.11,3.27l.45.79c.27.48.53,1,.79,1.46s.63,1.27.94,1.91a46.79,46.79,0,0,1,2,5.18l.33,1.06c.11.36.22.71.31,1.08s.2.73.29,1.09.12.47.18.71S325.25,194,325.33,194.37Z"/><path class="cls-8" d="M302.33,162.76l-4.54,1.73-7.21,3.08-6.88.32-3.32-.88-9,4.33-.95.45-6.84-.59-11,3-6.6,2.73-4.44-.86-1.8.84c.45-.64.92-1.29,1.4-1.91l10.39-6.86,4.57.39,4.89-2.32h0l.2-.09,8.61.44,10-5.89,5.48,1.54,5.28,2.71,4.12-5.68h0a49.79,49.79,0,0,1,6.75,3Z"/><path class="cls-8" d="M325.92,210.52v.08c-.05.37-.1.75-.17,1.13s-.13.81-.21,1.21l-.18.94-.33,1.45-9.67,4.79-6.9.08-8,3-9.26.33-3.77.13-15.78,7.16-8.16-1-7.72-2.24-6.87,6.31-7.76-.54c-.7-.91-1.39-1.85-2-2.81l5.49-1.76,11.27-3.94,10.49-1.06,4.95.55,15.68-6,5.32-.07,5-.06L314.41,214l10.32-3.53Z"/><path class="cls-8" d="M317.65,176.66l-3.16,2.27L310,177.85l-8.4,3.78-3.38-2.21-7.3,1.53-1.57,3.24-5.18-.47-3.05-.28-7.18,5.32-7.15-1-4.23,3.35-8.31-.06-5.22,4-8.95-1-8.63,4.31a47.45,47.45,0,0,1,1.11-5.94l11.92-6.24,5.37,3.13,14.34-8.6,8.18,4.79,9.61-7.62,1.55,2L296,174.06s4.75,2.36,5.37,2.12,12.41-4.32,12.41-4.32h0c1,1.07,1.91,2.18,2.79,3.33q.27.34.51.69Z"/><path class="cls-8" d="M319.31,229c-.24.4-.49.79-.73,1.17-.06.09-.13.18-.18.27-.26.4-.53.79-.8,1.17-.55.77-1.12,1.52-1.7,2.26a2.11,2.11,0,0,1-.19.23l-2.4.5-1.67,2.74L303.5,237l-7.33,4.66-7.05-.55-4.32,2.93-5.37.16-2.87.09-5.33,3.5-8.85-.53-1.87.82a47.7,47.7,0,0,1-4.73-2.26L267,240.62l5.21,2.39,13.65-7.15.9-.47,7.93,3.66,9.82-6.64L306,234l12.57-5.29Z"/><path class="cls-8" d="M325.33,194.37c.1.48.19.95.28,1.43L314.44,198l-14.77,8.69-7.05-.1-8.92-.14-2.73,3-6,1.25-8.22-.74-13.05,3-10.2,10.21-8.37.07a47.89,47.89,0,0,1-3-9.37c-.06-.28-.12-.56-.17-.84l12.86-9.2,18.91,1.42,8.37-7.12,7.74-.5L290.62,201l1-.7,9.95-7.19,11.18-5.48,9.23,4.46,3,.43c.07.23.12.47.18.71S325.25,194,325.33,194.37Z"/><path class="cls-10" d="M302.33,162.76l-4.54,1.73-7.21,3.08-6.88.32-3.32-.88-9,4.33a46.94,46.94,0,0,0-10.41-5.15l.2-.09,8.61.44,10-5.89,5.48,1.54,5.28,2.71,4.12-5.68h0a49.79,49.79,0,0,1,6.75,3Z"/><path class="cls-10" d="M325.92,210.52v.08c-.05.37-.1.75-.17,1.13s-.13.81-.21,1.21l-.18.94-.33,1.45-9.67,4.79-6.9.08-8,3-9.26.33a46.87,46.87,0,0,0,1.12-5.29l5-.06L314.41,214l10.32-3.53Z"/><path class="cls-10" d="M317.65,176.66l-3.16,2.27L310,177.85l-8.4,3.78-3.38-2.21-7.3,1.53-1.57,3.24-5.18-.47a47.56,47.56,0,0,0-3.72-4.62l1.53-1.22,1.55,2L296,174.06s4.75,2.36,5.37,2.12,12.41-4.32,12.41-4.32h0c1,1.07,1.91,2.18,2.79,3.33q.27.34.51.69Z"/><path class="cls-10" d="M319.31,229c-.24.4-.49.79-.73,1.17-.06.09-.13.18-.18.27-.26.4-.53.79-.8,1.17-.55.77-1.12,1.52-1.7,2.26a2.11,2.11,0,0,1-.19.23l-2.4.5-1.67,2.74L303.5,237l-7.33,4.66-7.05-.55-4.32,2.93-5.37.16a47.15,47.15,0,0,0,6.47-8.37l.9-.47,7.93,3.66,9.82-6.64L306,234l12.57-5.29Z"/><path class="cls-10" d="M325.33,194.37c.1.48.19.95.28,1.43L314.44,198l-14.77,8.69-7.05-.1a47.38,47.38,0,0,0-.79-5.22c-.08-.37-.16-.73-.25-1.1l9.95-7.19,11.18-5.48,9.23,4.46,3,.43c.07.23.12.47.18.71S325.25,194,325.33,194.37Z"/><path class="cls-12" d="M349,198.36c-4.11,20-19.43,40.44-42.57,53.81-36.34,21-78.22,16.47-93.54-10.06s1.72-65.06,38.06-86c20.44-11.8,42.63-15.54,60.86-11.83"/><path class="cls-12" d="M329.8,201.67c20.76,21.1,30.61,41.93,23,53-10.77,15.78-52.68,5.92-93.61-22s-65.38-63.38-54.61-79.15c7.86-11.53,32.35-9.38,60.93,3.51"/></g><g id="rocket"><path class="cls-13" d="M516.05,129l7,5.69a2.74,2.74,0,0,1,1,1.8l1.6,12.25a.56.56,0,0,0,1,.26l9.94-13.71a3.56,3.56,0,0,0-.07-4.29l-2.23-2.89a2,2,0,0,1,.1-2.64c4.41-4.8,19.61-23.06,19.65-47a1,1,0,0,0-1.23-1c-23.4,5-38.08,23.73-41.85,29.05a2,2,0,0,1-2.56.65l-3.29-1.58a3.58,3.58,0,0,0-4.21.83L489.62,119a.56.56,0,0,0,.46.93l12.31-1a2.75,2.75,0,0,1,2,.61l7.85,6.34"/><circle class="cls-13" cx="537.47" cy="97.73" r="4.85"/><path class="cls-13" d="M541.64,81.09a13.71,13.71,0,0,0,11.22,9.07"/><polygon class="cls-13" points="521.42 122.01 511.85 132.81 508.61 129.94 518.18 119.14 523.48 116.23 521.42 122.01"/><path class="cls-10" d="M508.47,131.46c-9.71,8-30.79,29.66-31.64,68.58-1,44,38.46,119.25,143.35,119.3,89.61,0,103.78-40.73,187.6-32.06L808,204c-190.71,144.52-322.69,74.79-325.16-8.85-1.07-36.08,17.92-55.45,27.1-62.67C509.47,131.46,510,131.18,508.47,131.46Z"/><path class="cls-14" d="M509.94,132.47s-31.88,25.27-20.47,75.85,89.34,87.54,178.54,62.4C770.1,242,808,156.42,808,156.42"/></g><g id="saturn"><path class="cls-7" d="M700.2,105.39a60.06,60.06,0,1,1-1.58-6A60.15,60.15,0,0,1,700.2,105.39Z"/><ellipse class="cls-7" cx="690.87" cy="117.56" rx="3.88" ry="2.67"/><path class="cls-11" d="M700.2,105.39a60.06,60.06,0,0,0-71.36-46.3A59.76,59.76,0,0,0,614.73,64,60.15,60.15,0,0,1,650.4,177.37c1.16-.17,2.33-.38,3.5-.62A60.15,60.15,0,0,0,700.2,105.39Z"/><ellipse class="cls-11" cx="678.18" cy="114.02" rx="11.21" ry="8.4" transform="translate(-5.61 187.22) rotate(-15.65)"/><path class="cls-15" d="M701.53,96.46c22.7-2.23,37.74-1.4,38.66,2.93,1.6,7.52-40,22.76-93,34s-97.17,14.32-98.77,6.8c-.87-4.06,10.86-10.36,30.15-17.08"/><path class="cls-16" d="M701.4,98.8c8-.29,12.9.39,13.27,2.15,1,4.7-30.31,15.35-69.94,23.78s-72.55,11.47-73.55,6.78c-.3-1.4,2.27-3.33,7.08-5.57l1.24-.57"/><ellipse class="cls-11" cx="638.92" cy="68.38" rx="8.6" ry="4.74"/><ellipse class="cls-11" cx="659.82" cy="166.74" rx="8.6" ry="4.74" transform="matrix(0.99, -0.11, 0.11, 0.99, -14.64, 75.78)"/><ellipse class="cls-11" cx="658.13" cy="73.12" rx="6.91" ry="4.22"/><ellipse class="cls-11" cx="657.65" cy="96.07" rx="3.88" ry="2.67"/><ellipse class="cls-7" cx="651.22" cy="68.9" rx="3.88" ry="2.67"/><ellipse class="cls-7" cx="682.07" cy="143.39" rx="3.88" ry="2.67"/><ellipse class="cls-7" cx="669.82" cy="162" rx="3.88" ry="2.67"/><ellipse class="cls-11" cx="594.43" cy="98.74" rx="3.88" ry="2.67"/><ellipse class="cls-11" cx="610.85" cy="108.29" rx="3.25" ry="2.24"/><ellipse class="cls-11" cx="684.45" cy="133.72" rx="3.88" ry="2.67"/><ellipse class="cls-11" cx="666.23" cy="88.29" rx="5.28" ry="3.63"/><ellipse class="cls-7" cx="676.79" cy="92.99" rx="5.28" ry="3.63"/><ellipse class="cls-11" cx="598.31" cy="111.92" rx="5.28" ry="3.63"/><ellipse class="cls-11" cx="669.39" cy="144.35" rx="5.28" ry="3.63"/><ellipse class="cls-11" cx="676.79" cy="158.36" rx="5.28" ry="3.63"/><path class="cls-12" d="M554,81.4a94.75,94.75,0,1,1-7.29,36.52c0-2,.06-4,.19-6"/><circle class="cls-17" cx="641.37" cy="117.92" r="140.86"/></g><g id="satellite"><path class="cls-18" d="M79,131.81c3.05-.66,5-1.82,5.24-3.38.45-2.94-5.34-6.33-13.54-8.26"/><path class="cls-18" d="M59.25,118.68c-7.27-.18-12.67,1.33-13.07,4-.53,3.45,7.57,7.53,18.08,9.12"/><path class="cls-18" d="M46.18,122.67c-.53,3.45-.22,12.89,16.4,15.41,18.13,2.74,21.13-6.2,21.65-9.65"/><path class="cls-18" d="M58.31,121.22c-4.81-.14-8.17.47-8.36,1.73-.28,1.84,6.34,4.37,14.79,5.65s15.53.82,15.81-1c.22-1.45-3.8-3.31-9.62-4.67"/><polyline class="cls-18" points="64.93 114.31 63.42 117.39 60.5 123.39"/><polyline class="cls-18" points="68.38 124.59 67.36 117.99 66.84 114.6"/><circle class="cls-18" cx="66.29" cy="111.81" r="2.84" transform="translate(-53.4 61.11) rotate(-36.38)"/><path class="cls-18" d="M81.88,148.47l8.56,1.3,11.2,1.69,8.56,1.3a2.66,2.66,0,0,1,2.23,3l-1.3,8.56-1.3,8.57a2.66,2.66,0,0,1-3,2.23l-8.56-1.3L87,172.16l-8.56-1.3a2.66,2.66,0,0,1-2.23-3l1.3-8.56,1.3-8.56A2.67,2.67,0,0,1,81.88,148.47Z"/><line class="cls-18" x1="107.57" y1="163.81" x2="81.1" y2="159.81"/><line class="cls-18" x1="100.98" y1="155.91" x2="99.94" y2="162.66"/><line class="cls-18" x1="89.79" y1="154.22" x2="88.74" y2="160.97"/><line class="cls-18" x1="99.27" y1="167.09" x2="98.28" y2="173.62"/><line class="cls-18" x1="88.08" y1="165.4" x2="87.08" y2="171.93"/><path class="cls-18" d="M14.81,138.33l8.56,1.29,11.2,1.7,8.56,1.29a2.66,2.66,0,0,1,2.23,3l-1.3,8.57-1.3,8.56a2.66,2.66,0,0,1-3,2.23l-8.56-1.29L20,162l-8.56-1.29a2.66,2.66,0,0,1-2.23-3l1.3-8.57,1.3-8.56A2.66,2.66,0,0,1,14.81,138.33Z"/><line class="cls-18" x1="40.5" y1="153.67" x2="14.03" y2="149.66"/><line class="cls-18" x1="33.91" y1="145.77" x2="32.87" y2="152.51"/><line class="cls-18" x1="22.72" y1="144.07" x2="21.67" y2="150.82"/><line class="cls-18" x1="32.2" y1="156.95" x2="31.21" y2="163.48"/><line class="cls-18" x1="21.01" y1="155.25" x2="20.02" y2="161.78"/><rect class="cls-18" x="70.87" y="156.08" width="6.71" height="5.37" transform="translate(123.87 326.86) rotate(-171.4)"/><rect class="cls-18" x="44.03" y="152.02" width="6.71" height="5.37" transform="translate(71.1 314.76) rotate(-171.4)"/><path class="cls-18" d="M52.4,169.33l-1.75-.26a2,2,0,0,1-1.7-2.31l3.54-23.31a2,2,0,0,1,2.31-1.71l7,1.06"/><path class="cls-18" d="M65.66,138.71,65,143.28h0l6,.91a2,2,0,0,1,1.7,2.31l-3.53,23.31a2,2,0,0,1-2.32,1.71l-1.75-.27h0l-.37,2.48a2.07,2.07,0,0,1-2.37,1.74l-8.58-1.29A2.09,2.09,0,0,1,52,171.81l.37-2.48,9.15,1.39"/><polyline class="cls-18" points="61.4 142.74 60.83 142.65 61.51 138.14"/><path class="cls-18" d="M71.78,106.36a5,5,0,0,0-6.59-2"/><path class="cls-18" d="M74.34,103A6.16,6.16,0,0,0,65,100.22"/></g><g id="ground"><path class="cls-11" d="M291.72,425.2S415,332.48,589.56,325.69c105.77-4.12,180.82-76.07,218.31-59.95V425.2Z"/><rect class="cls-7" x="584.28" y="316.74" width="61.17" height="32.88" transform="translate(1229.73 666.36) rotate(-180)"/><rect class="cls-8" x="622.68" y="326.48" width="14.3" height="23.14" transform="translate(1259.67 676.1) rotate(-180)"/><rect class="cls-8" x="606.69" y="331.35" width="8.88" height="8.88" transform="translate(1222.26 671.58) rotate(-180)"/><rect class="cls-8" x="591.98" y="331.35" width="8.88" height="8.88" transform="translate(1192.83 671.58) rotate(-180)"/><rect class="cls-8" x="581.47" y="307.15" width="66.79" height="9.59" transform="translate(1229.73 623.89) rotate(-180)"/><path class="cls-8" d="M644.92,297.14v10H584.81v-10a30,30,0,0,1,23.64-29.37,29,29,0,0,1,5.63-.67c.26,0,.52,0,.78,0A30.06,30.06,0,0,1,644.92,297.14Z"/><path class="cls-10" d="M643.34,297.14v10H632.13v-10a30.05,30.05,0,0,0-23.68-29.37,29,29,0,0,1,5.63-.67A30,30,0,0,1,643.34,297.14Z"/><rect class="cls-7" x="585.77" y="266.68" width="16.58" height="33.47" transform="translate(1216.49 69.37) rotate(135.52)"/><rect class="cls-8" x="568.71" y="265.28" width="22.57" height="7.07" transform="translate(1182.17 54.2) rotate(135.52)"/><line class="cls-19" x1="636.98" y1="326.48" x2="636.98" y2="349.62"/><polygon class="cls-20" points="584.28 316.74 645.45 322.8 645.45 316.74 584.28 316.74"/><polyline class="cls-21" points="711.36 272.87 711.36 262.7 725.84 255.5 725.84 265.15"/><rect class="cls-7" x="779.34" y="258.01" width="29.38" height="77.23"/><polygon class="cls-22" points="732.05 338.79 702.67 338.79 702.67 273.64 732.05 257.98 732.05 338.79"/><rect class="cls-7" x="732.06" y="281.03" width="29.38" height="54.21"/><rect class="cls-9" x="711.36" y="276.75" width="20.69" height="8.57"/><rect class="cls-22" x="746.75" y="293.54" width="14.69" height="41.69"/><rect class="cls-9" x="711.36" y="292.16" width="20.69" height="8.57"/><rect class="cls-9" x="711.36" y="308.41" width="20.69" height="8.57"/><rect class="cls-11" x="746.75" y="220.03" width="14.69" height="61"/><rect class="cls-8" x="683.41" y="293.31" width="19.26" height="52.44"/><rect class="cls-10" x="709.53" y="312.7" width="10.92" height="33.05"/><rect class="cls-20" x="686.35" y="288.32" width="16.32" height="4.98"/><rect class="cls-8" x="779.34" y="263.43" width="29.38" height="4.86"/><rect class="cls-8" x="779.34" y="273.68" width="29.38" height="4.86"/><rect class="cls-8" x="779.34" y="283.92" width="29.38" height="4.86"/><rect class="cls-8" x="779.34" y="294.17" width="29.38" height="4.86"/><rect class="cls-8" x="779.34" y="304.42" width="29.38" height="4.86"/><rect class="cls-8" x="779.34" y="314.66" width="29.38" height="4.86"/><rect class="cls-8" x="779.34" y="324.91" width="29.38" height="4.86"/><polyline class="cls-23" points="779.34 334.5 779.34 256.39 808.72 256.39 808.72 335.24"/><rect class="cls-10" x="693.88" y="296.87" width="2.67" height="45.56"/><line class="cls-24" x1="702.67" y1="288.32" x2="702.67" y2="342.44"/><polygon class="cls-9" points="791.04 335.24 761.66 335.24 761.66 245.94 791.04 264.85 791.04 335.24"/><rect class="cls-7" x="695.21" y="319" width="18.88" height="39.58"/><line class="cls-23" x1="742.96" y1="281.03" x2="742.96" y2="265.86"/><line class="cls-23" x1="751.31" y1="281.03" x2="751.31" y2="271.44"/><line class="cls-24" x1="761.43" y1="234.48" x2="761.66" y2="335.24"/><polygon class="cls-10" points="772.73 329.77 765.78 329.77 765.78 256.39 772.73 260.67 772.73 329.77"/><rect class="cls-10" x="686.35" y="296.87" width="2.67" height="45.56"/><line class="cls-25" x1="756.75" y1="208.57" x2="756.75" y2="220.03"/><rect class="cls-8" x="754.09" y="324.91" width="15.16" height="19.47"/><rect class="cls-20" x="766.64" y="336.53" width="9.2" height="11.81"/><rect class="cls-23" x="779.34" y="240.25" width="17.59" height="16.14"/><rect class="cls-23" x="789.4" y="245.94" width="7.53" height="10.45"/><line class="cls-23" x1="783.67" y1="240.25" x2="783.67" y2="228.71"/><polyline class="cls-21" points="736.33 334.64 736.33 377.5 656.45 425.2"/><polyline class="cls-26" points="761.43 344.29 761.43 393.44 807.78 393.44"/><polyline class="cls-27" points="725.84 338.05 725.84 371.37 623.34 371.37 558.69 425.2"/><polygon class="cls-7" points="549.79 326.34 556.28 337.58 562.77 348.81 549.79 348.81 536.82 348.81 543.3 337.58 549.79 326.34"/><polygon class="cls-7" points="549.79 340.29 556.28 351.53 562.77 362.77 549.79 362.77 536.82 362.77 543.3 351.53 549.79 340.29"/><rect class="cls-20" x="547.82" y="374.49" width="3.94" height="10.47"/><polygon class="cls-7" points="549.79 354.25 556.28 365.49 562.77 376.73 549.79 376.73 536.82 376.73 543.3 365.49 549.79 354.25"/><polygon class="cls-20" points="669.82 348.22 676.31 359.46 682.8 370.7 669.82 370.7 656.84 370.7 663.33 359.46 669.82 348.22"/><polygon class="cls-20" points="669.82 362.18 676.31 373.42 682.8 384.66 669.82 384.66 656.84 384.66 663.33 373.42 669.82 362.18"/><rect class="cls-7" x="667.85" y="396.37" width="3.94" height="10.47"/><polygon class="cls-20" points="669.82 376.13 676.31 387.37 682.8 398.61 669.82 398.61 656.84 398.61 663.33 387.37 669.82 376.13"/><polygon class="cls-20" points="488.81 371.43 495.3 382.67 501.79 393.91 488.81 393.91 475.83 393.91 482.32 382.67 488.81 371.43"/><rect class="cls-20" x="486.84" y="405.62" width="3.94" height="10.47"/><polygon class="cls-20" points="488.81 385.38 495.3 396.62 501.79 407.86 488.81 407.86 475.83 407.86 482.32 396.62 488.81 385.38"/><polygon class="cls-7" points="754.09 367.61 760.58 378.85 767.07 390.09 754.09 390.09 741.12 390.09 747.6 378.85 754.09 367.61"/><rect class="cls-20" x="752.12" y="401.81" width="3.94" height="10.47"/><polygon class="cls-7" points="754.09 381.57 760.58 392.81 767.07 404.05 754.09 404.05 741.12 404.05 747.6 392.81 754.09 381.57"/></g><g id="international_space_station_ISS" data-name="international space station ISS"><rect class="cls-18" x="20.1" y="330.9" width="9.03" height="35.12" rx="2.53" transform="translate(-169.07 57.75) rotate(-29.63)"/><rect class="cls-18" x="31.5" y="324.42" width="9.03" height="35.12" rx="2.53" transform="translate(-164.37 62.53) rotate(-29.63)"/><rect class="cls-18" x="43.92" y="373.01" width="9.03" height="35.12" rx="2.53" transform="translate(-186.78 75.03) rotate(-29.63)"/><rect class="cls-18" x="55.32" y="366.53" width="9.03" height="35.12" rx="2.53" transform="translate(-182.08 79.82) rotate(-29.63)"/><polyline class="cls-18" points="58.01 359.64 37.74 371.17 35.98 368.07 56.24 356.54 54.86 354.1 102.86 326.8 104.73 329.98"/><rect class="cls-18" x="83.73" y="347.38" width="6.48" height="13.08" transform="translate(-163.61 89.29) rotate(-29.63)"/><path class="cls-18" d="M87.2,317c-2.13,1.22-3,5.4-3,5.4L76.06,327l-6.65,3.78L58.3,337.1l2.76,4.84,11.11-6.32,3.71,6.53,6.65-3.79-3.71-6.52L87,327.19s3.54.57,5.67-.64A5.52,5.52,0,0,0,87.2,317Z"/><rect class="cls-18" x="109.39" y="280.11" width="9.03" height="35.12" rx="2.53" transform="translate(360.1 500.09) rotate(150.37)"/><rect class="cls-18" x="98" y="286.6" width="9.03" height="35.12" rx="2.53" transform="translate(342 517.84) rotate(150.37)"/><rect class="cls-18" x="133.21" y="322.22" width="9.03" height="35.12" rx="2.53" transform="translate(425.44 567.03) rotate(150.37)"/><rect class="cls-18" x="121.81" y="328.71" width="9.03" height="35.12" rx="2.53" transform="translate(407.34 584.79) rotate(150.37)"/><polyline class="cls-18" points="104.46 329.12 124.51 317.71 126.27 320.81 106.01 332.34 107.4 334.78 59.4 362.08 57.56 358.96"/><rect class="cls-18" x="92.08" y="358.98" width="1.78" height="12.57" transform="translate(-168.44 93.74) rotate(-29.63)"/><rect class="cls-18" x="80.15" y="370" width="15.32" height="6.99" transform="translate(-173.18 92.27) rotate(-29.63)"/><rect class="cls-18" x="95.02" y="361.54" width="15.32" height="6.99" transform="translate(-167.06 98.51) rotate(-29.63)"/><rect class="cls-18" x="67.99" y="361.9" width="3.06" height="12.57" transform="translate(-172.95 82.52) rotate(-29.63)"/><rect class="cls-18" x="73.66" y="358.64" width="3.06" height="12.57" transform="translate(-170.6 84.9) rotate(-29.63)"/><rect class="cls-18" x="79.33" y="355.39" width="3.06" height="12.57" transform="translate(-168.25 87.28) rotate(-29.63)"/><rect class="cls-18" x="94.7" y="346.65" width="3.06" height="12.57" transform="translate(-161.91 93.73) rotate(-29.63)"/><rect class="cls-18" x="100.37" y="343.39" width="3.06" height="12.57" transform="translate(-159.56 96.11) rotate(-29.63)"/><rect class="cls-18" x="106.04" y="340.13" width="3.06" height="12.57" transform="translate(-157.21 98.49) rotate(-29.63)"/><path class="cls-18" d="M89.52,319s4.56.68,2.61,4.52"/><line class="cls-18" x1="16.22" y1="342.85" x2="20.01" y2="340.62"/><line class="cls-18" x1="22.57" y1="353.64" x2="26.36" y2="351.42"/><line class="cls-18" x1="23.01" y1="346.12" x2="27.11" y2="343.71"/><line class="cls-18" x1="28.73" y1="357.29" x2="32.83" y2="354.88"/><line class="cls-18" x1="40.1" y1="385.04" x2="43.74" y2="382.9"/><line class="cls-18" x1="46.3" y1="395.93" x2="50.09" y2="393.7"/><line class="cls-18" x1="46.74" y1="388.4" x2="50.84" y2="385.99"/><line class="cls-18" x1="52.46" y1="399.57" x2="56.56" y2="397.16"/><line class="cls-18" x1="27.79" y1="336.04" x2="31.24" y2="334.01"/><line class="cls-18" x1="33.81" y1="347.04" x2="37.6" y2="344.81"/><line class="cls-18" x1="34.25" y1="339.51" x2="38.34" y2="337.1"/><line class="cls-18" x1="39.97" y1="350.68" x2="44.07" y2="348.27"/><line class="cls-18" x1="51.56" y1="377.84" x2="55.02" y2="375.8"/><line class="cls-18" x1="57.58" y1="388.83" x2="61.37" y2="386.6"/><line class="cls-18" x1="58.02" y1="381.31" x2="62.11" y2="378.89"/><line class="cls-18" x1="63.74" y1="392.47" x2="67.84" y2="390.06"/><line class="cls-18" x1="117.38" y1="339.12" x2="120.84" y2="337.09"/><line class="cls-18" x1="123.4" y1="350.12" x2="127.19" y2="347.89"/><line class="cls-18" x1="123.84" y1="342.59" x2="127.94" y2="340.18"/><line class="cls-18" x1="129.57" y1="353.76" x2="133.66" y2="351.35"/><line class="cls-18" x1="128.51" y1="332.58" x2="131.97" y2="330.55"/><line class="cls-18" x1="135.07" y1="343.26" x2="138.32" y2="341.35"/><line class="cls-18" x1="134.97" y1="336.05" x2="139.07" y2="333.64"/><line class="cls-18" x1="140.69" y1="347.22" x2="144.79" y2="344.81"/><line class="cls-18" x1="93.89" y1="297.16" x2="97.19" y2="295.23"/><line class="cls-18" x1="99.75" y1="308.25" x2="103.54" y2="306.03"/><line class="cls-18" x1="100.19" y1="300.73" x2="104.29" y2="298.32"/><line class="cls-18" x1="105.91" y1="311.9" x2="110.01" y2="309.49"/><line class="cls-18" x1="105.2" y1="290.52" x2="108.49" y2="288.58"/><line class="cls-18" x1="111.06" y1="301.6" x2="114.85" y2="299.38"/><line class="cls-18" x1="111.5" y1="294.08" x2="115.59" y2="291.67"/><line class="cls-18" x1="117.22" y1="305.25" x2="121.32" y2="302.84"/><line class="cls-18" x1="61.21" y1="354.06" x2="79.91" y2="343.06"/></g><g id="Falcon_Heavy." data-name="Falcon Heavy."><path class="cls-18" d="M420.47,268.17V373.93h7.09V268.17H430V253a12.22,12.22,0,0,0-2.59-7.52l-2.62-3.34a.94.94,0,0,0-1.48,0l-2.62,3.34a12.22,12.22,0,0,0-2.59,7.52v15.17l5.95.13"/><rect class="cls-18" x="420.47" y="373.93" width="7.09" height="4.94"/><rect class="cls-18" x="421.98" y="378.87" width="4.05" height="2.91"/><rect class="cls-18" x="410.98" y="373.93" width="7.09" height="4.94"/><rect class="cls-18" x="412.5" y="378.87" width="4.05" height="2.91"/><path class="cls-18" d="M418,373.93h-7V302.09a11.59,11.59,0,0,1,2.59-7.3l.89-1.1.89,1.1a11.59,11.59,0,0,1,2.59,7.3Z"/><line class="cls-18" x1="411.19" y1="300.44" x2="414.53" y2="300.44"/><line class="cls-18" x1="418.01" y1="302.91" x2="413.9" y2="302.91"/><rect class="cls-18" x="429.95" y="373.93" width="7.09" height="4.94"/><rect class="cls-18" x="431.47" y="378.87" width="4.05" height="2.91"/><path class="cls-18" d="M437,373.93h-7V302.09a11.59,11.59,0,0,1,2.59-7.3l.89-1.1.89,1.1a11.59,11.59,0,0,1,2.59,7.3Z"/><line class="cls-18" x1="430.14" y1="300.44" x2="433.49" y2="300.44"/><line class="cls-18" x1="436.97" y1="302.91" x2="432.86" y2="302.91"/><line class="cls-18" x1="424.37" y1="247.02" x2="424.37" y2="262.98"/><line class="cls-18" x1="424.37" y1="272.1" x2="424.37" y2="369.62"/><polyline class="cls-18" points="432.86 307.85 433.49 358.86 430.14 362.47"/><path class="cls-18" d="M437,385.56s4.56,1.71,4.07,7.55"/><path class="cls-18" d="M411.05,385.56s-4.58,3.41-3.36,7.55"/><path class="cls-18" d="M416.56,385.56a9.15,9.15,0,0,1,0,8.77"/><path class="cls-18" d="M422,385.56s-1.77,9,0,16.56"/><path class="cls-18" d="M427.56,385.56s1.85,2.2,0,10.47"/><path class="cls-18" d="M431.81,385.56s-1.43,12.42,0,18.27"/><path class="cls-18" d="M406.47,378.87s-6.57-.37-5.11,6.69c0,0-8.89-2.31-10.11,6.7"/><path class="cls-18" d="M443.11,380.32s7.92,1.35,6.46,7.31c0,0,11.32,3.78,8.76,11.94"/><path class="cls-18" d="M441.08,372.05s8.85-.85,10.68,5.48"/><path class="cls-18" d="M454.07,383s6.33-1.22,6.82,3.77"/><path class="cls-18" d="M401.52,394.7s-7.55-.78-8.85,7.42"/></g><g id="Virgin_Galactic" data-name="Virgin Galactic"><path class="cls-18" d="M377,175.29c0-1.41,2.24-2.57,2.24-2.57-3.84-1.24-7-5.59-12.44-9.33S344,152.25,336.78,148.94s-9.18.46-9.18.46a20.12,20.12,0,0,0-8.08.33,31.73,31.73,0,0,0,8.54,9"/><path class="cls-18" d="M362.68,189.25c5.92,1.49,7.34,1.25,7.34,1.25l8.67-13.9a35.15,35.15,0,0,0-25.14-3.44c-14.39,3.38-22.91-2.64-22.91-2.64"/><path class="cls-18" d="M346,167.64s-17.11-12.67-17.88-7.78-.11,11.24,1,12.84,10.06,9.24,23.77,13.69"/><path class="cls-18" d="M366.46,185.14s-6.42-6.53-12.77-7.72c0,0-3.29,6.85,1.81,15.15l2.85,1.39Z"/><line class="cls-18" x1="315.21" y1="147.88" x2="319.52" y2="149.73"/><path class="cls-18" d="M356.62,157.94s4.28.51,6.28.86,8.34,3.41,12.07,3,21.46-8.06,34.82-2.73l-9.12,12.52s-12.83-.43-18.52-2.12-8.18-2.17-9.48-1.34"/><path class="cls-18" d="M387.33,162.64s6-3.23,15.5-2.59"/><path class="cls-18" d="M369,162s9.16,4.11,9.64,4.43l.49.32-4.35,1"/><path class="cls-18" d="M324.68,149.11s1.13,2.64,2.34,2.94.58-2.65.58-2.65"/><ellipse class="cls-18" cx="330.35" cy="153.8" rx="1.27" ry="0.98" transform="translate(154.59 473.01) rotate(-86.13)"/><ellipse class="cls-18" cx="333.79" cy="155.73" rx="1.27" ry="0.98" transform="translate(155.88 478.25) rotate(-86.13)"/><ellipse class="cls-18" cx="337.47" cy="157.25" rx="1.27" ry="0.98" transform="translate(157.78 483.33) rotate(-86.13)"/><path class="cls-18" d="M379.28,172.72s25.25,5.08,48,28.9"/><path class="cls-18" d="M377,175.29s23.62,7.76,41,26.33"/><path class="cls-18" d="M377.15,180.52s20.12,7.09,25.68,22.5"/></g><g id="Blue_Origin" data-name="Blue Origin"><polyline class="cls-18" points="760.62 101.8 759.45 107.88 762.21 110.61 767.82 108.92"/><rect class="cls-18" x="741.8" y="46.55" width="14.8" height="67.05" transform="translate(165.18 556.14) rotate(-45.29)"/><path class="cls-18" d="M723.27,40.75l8.93,8.85L718.55,63.39l-8.94-8.85a8.32,8.32,0,0,1-.63-.69,11.85,11.85,0,0,1-2.81-6.25,12,12,0,0,1,1.1-6.77,4.68,4.68,0,0,1,1-1.33,5,5,0,0,1,1.31-1,11.86,11.86,0,0,1,6.76-1.16l.46.06a11.92,11.92,0,0,1,5.82,2.68C722.82,40.32,723,40.53,723.27,40.75Z"/><path class="cls-18" d="M706.78,47l4.55,4.5L709,53.85a11.85,11.85,0,0,1-2.81-6.25Z"/><rect class="cls-18" x="710.99" y="41.54" width="5.03" height="6.4" transform="translate(179.72 520.3) rotate(-45.29)"/><path class="cls-18" d="M722.57,40.12l-2.69,2.73-4.55-4.51,1-1,.46.06A11.92,11.92,0,0,1,722.57,40.12Z"/><line class="cls-18" x1="725.67" y1="62.94" x2="763.91" y2="100.81"/><line class="cls-18" x1="731.38" y1="57.32" x2="772.14" y2="97.67"/><polyline class="cls-18" points="771.03 91.28 777.1 90.05 779.86 92.78 778.23 98.41"/><polyline class="cls-18" points="764.1 96.44 763.83 102.85 766.81 105.81 771.14 103.42"/><rect class="cls-18" x="769.63" y="103.06" width="9.7" height="4.1" transform="translate(154.89 581.52) rotate(-45.29)"/><path class="cls-18" d="M779.35,103.1s15.73,9.27,22.57,24.73"/><path class="cls-18" d="M776.35,105.8s24.11,17,25,40.1"/><path class="cls-18" d="M794.26,136.38a37,37,0,0,1,2.46,11.76"/><path class="cls-18" d="M772.73,110.53a63,63,0,0,1,18,18.72"/></g><g id="Russian_Soyuz_capsule" data-name="Russian Soyuz capsule"><path class="cls-18" d="M277.61,342.23l12.2,12.19-14.19,14.19a13.25,13.25,0,0,1-14.62,2.8l-.25-.11-.11-.26a13.23,13.23,0,0,1,2.78-14.61Z"/><polygon class="cls-18" points="278.58 338.97 293.07 353.45 289.81 354.42 277.61 342.23 278.58 338.97"/><polyline class="cls-18" points="267.24 372.56 264.15 373.35 263.37 376.44 255.86 368.93 258.95 368.14 259.74 365.06"/><path class="cls-18" d="M263.44,376.14a8.9,8.9,0,0,1-2.29,8.36c-3.53,3.53-9.44,3.35-13.2-.4s-3.93-9.67-.4-13.2a9,9,0,0,1,9-2.14"/><polyline class="cls-18" points="248.66 384.8 244.23 387.83 243.32 386.92 247.1 383.13"/><line class="cls-18" x1="260.3" y1="385.35" x2="248.91" y2="373.97"/><line class="cls-18" x1="248.48" y1="370.1" x2="259.8" y2="381.41"/><circle class="cls-18" cx="257.67" cy="374.17" r="1.75"/><rect class="cls-18" x="243.46" y="328.06" width="32.1" height="10.83" transform="translate(207.31 752.79) rotate(-135.01)"/><line class="cls-18" x1="262.07" y1="343.68" x2="267.39" y2="338.36"/><line class="cls-18" x1="263.62" y1="329.93" x2="257.87" y2="335.69"/><line class="cls-18" x1="250.12" y1="331.74" x2="254.9" y2="326.97"/><rect class="cls-18" x="282" y="366.58" width="32.1" height="10.83" transform="translate(245.88 845.81) rotate(-135.01)"/><line class="cls-18" x1="300.61" y1="382.2" x2="305.93" y2="376.88"/><line class="cls-18" x1="302.17" y1="368.45" x2="296.41" y2="374.21"/><line class="cls-18" x1="288.67" y1="370.27" x2="293.44" y2="365.49"/><line class="cls-18" x1="277.22" y1="367.01" x2="265.29" y2="354.56"/><line class="cls-18" x1="284.27" y1="359.96" x2="272.07" y2="347.77"/></g><g id="UFO"><ellipse class="cls-18" cx="278.78" cy="57.32" rx="48.43" ry="10.2" transform="translate(0.75 118.18) rotate(-23.97)"/><line class="cls-18" x1="234.52" y1="76.99" x2="323.04" y2="37.65"/><path class="cls-18" d="M273.29,70.66s-21.48,3.8-26.26.77"/><path class="cls-18" d="M277.71,69s-11-2.84-12-5.81"/><path class="cls-18" d="M288,64.39s5-10.54,4-12.93"/><path class="cls-18" d="M295.92,60.36S309,48.48,308.7,44"/><rect class="cls-18" x="270.41" y="66.26" width="26.42" height="3.9" transform="translate(-3.25 121.08) rotate(-23.97)"/><path class="cls-18" d="M262,54.11c-.45-5.55,3.11-11.31,9.16-14s12.71-1.47,16.53,2.58"/><path class="cls-18" d="M272,42.14s4.56-1.45,8.44.83"/><path class="cls-18" d="M275.13,50.93s20.55-9,34.33-10.68"/></g><g id="astronaut"><path class="cls-18" d="M130.85,57.24s-1.07-12.37-11.13-9.43-7.36,12.13.27,15.51c0,0-1.42,3.7,7.21,2.11"/><path class="cls-18" d="M125,57.42s-4.56,2.06-11.81-3.36"/><path class="cls-18" d="M118.82,62.73a14.61,14.61,0,0,0,2.7-2"/><path class="cls-18" d="M120.27,64.87a4,4,0,0,0-1.08,5.54"/><path class="cls-18" d="M124.41,68.93s-7-.87-5.91,5.68,2.7,5.68,3,8.23S120.2,81.75,117.4,86a4.49,4.49,0,0,1-3.89,0c-2.16-1-3.42-1.74-3.54-1s-3.3-1.58-3,.86,4,6.07,7,5.78,5.66.3,7.06.3-2.61-.76-2.89-3.61"/><path class="cls-18" d="M123.51,85.92s-2.64-1.07-2.3-2.07"/><path class="cls-18" d="M121,91.87s8,.82,9.38-3.39,2-2,1-5.46A14,14,0,0,0,129,78"/><path class="cls-18" d="M130.22,52.81s3.32,1.71-3.48-6.15-6.78-8-8.24-9.41-1.44-3.64-2.61-3.46-4.41,4-4.38,4.52,3.15,4.65,3.48,5.8,3.2,4.24,3.2,4.24"/><path class="cls-18" d="M131.14,59s1-7.92,2.67-8.23,7.24.77,7.24.77S138,60.8,136.87,62.79s-2.06,3.31-2,5.18"/><path class="cls-18" d="M115.36,34a14.3,14.3,0,0,1-3.18-2.23c-.67-.9-2.52-6.26-2.88-5.81s.31,3.09.31,3.09-2.7-4.28-2.82-3.75,1.51,5.27,1.51,5.27-3-5.53-3.29-4.37,2,6.22,2,6.22-4.21-1.17-4.39-.59,2.94,2.87,4.7,4.09a18.92,18.92,0,0,0,4.3,2"/><path class="cls-18" d="M141.05,51.58s10.11,19.59,10.21,23.14-4.64,11.69-4.64,11.69-9,1.86-9.32,1.75a22.65,22.65,0,0,1-2-3.3"/><path class="cls-18" d="M128.68,62.27s-2.93,2.79.41,8.46,6.4,11.32,6.4,11.32"/><path class="cls-18" d="M124.21,73.59s1.86,4.79,1.25,5.14-3.25.1-4.83-2.45S124.21,73.59,124.21,73.59Z"/><path class="cls-18" d="M150.13,79.25a13.78,13.78,0,0,1,.52,6.92,37.65,37.65,0,0,0-1.31,7.89c-.07,2.39,1.57,1.15,3.31,3s-1.25-2.44,2.86-.4,8.88,1.5,9.77,2.7.72,1.8,1.94.76a3.3,3.3,0,0,1,3.33-.41c.3.25,5.35,12.69,1,14.09s-4.15-2.26-4.3-2.84-.57-5.19-2-4.19-6.07,1.65-7.22-.3-2.31-.24-2.72.3-2.12.75-2.12.75"/><path class="cls-18" d="M130,89.55s3,.88,3.79.29-11.44,3.83-14.31,10-1.6,8.11-.18,8.91,4.68-.14,6.2.94,2.3.72,3.53,1,8.28,0,9.42.39,2.27.86,1.94-.29,1.08,0,1.72.69a2.59,2.59,0,0,0,2.09.88,3.88,3.88,0,0,1,2.36,1.38c0,.35-1,6.35,3.07,5.52S154.2,106,152,104.78s-4.82.12-5.87-1a8.09,8.09,0,0,0-3.24-1.63s-4.31-.64-5.29-1.77,8.29-7.18,8.2-13.43"/><path class="cls-18" d="M149.58,95.27s-2.9,1.73-2.83,3.32"/><path class="cls-18" d="M168,99.66s2.18,6.43,1.29,10.24"/><path class="cls-18" d="M170.9,106.82s1.16,4.08-.22,7.2"/><path class="cls-18" d="M137.64,100.42a20.23,20.23,0,0,0-12.39,6"/><path class="cls-18" d="M131,107.68s-1.58-3-.23-5.21"/></g></g></svg>