<svg id="Layer_1" width='45px' height='45px' data-name="Layer 1" xmlns="http://www.w3.org/2000/svg" viewBox="0 0 19.84 19.84"><defs><style>.cls-1{fill:none;stroke:#221e28;stroke-linecap:round;stroke-linejoin:round;stroke-width:0.48px;}</style></defs><path class="cls-1" d="M12.66,13.14l1.75,1.67a.11.11,0,0,0,.19-.08l-.17-3.32a.72.72,0,0,0-.54-.65l-.7-.16a.4.4,0,0,1-.31-.42A14.49,14.49,0,0,0,10.08.59a.2.2,0,0,0-.31,0A14.43,14.43,0,0,0,7,10.18a.41.41,0,0,1-.32.42L6,10.76a.7.7,0,0,0-.54.65l-.18,3.32a.11.11,0,0,0,.19.08l1.75-1.67A.61.61,0,0,1,7.56,13h4.72A.58.58,0,0,1,12.66,13.14Z"/><circle class="cls-1" cx="9.92" cy="5.58" r="0.95"/><path class="cls-1" d="M8.65,2.52a2.17,2.17,0,0,0,2.54,0"/><path class="cls-1" d="M11.25,14.22a5,5,0,0,1-1.16,2.45.24.24,0,0,1-.33,0A4.92,4.92,0,0,1,8.6,14.22"/><path class="cls-1" d="M12.29,14.64s-.66,3.22-2.21,4.63a.24.24,0,0,1-.32,0c-1.55-1.41-2.21-4.63-2.21-4.63"/></svg>