<svg id="Layer_1" data-name="Layer 1" xmlns="http://www.w3.org/2000/svg" viewBox="0 0 11.34 11.34"><defs><style>.cls-1{fill:none;stroke:#221e28;stroke-linecap:round;stroke-linejoin:round;stroke-width:0.28px;}</style></defs><path class="cls-1" d="M.89,9.17A1.64,1.64,0,0,1,.4,9.3,2.81,2.81,0,0,0,2.12,11a1.08,1.08,0,0,1,.22-.58"/><path class="cls-1" d="M3,10a1.93,1.93,0,0,0-.3,1.16h.64a10.18,10.18,0,0,1,.26-1c.3-1.05,2-1.71.69-3s-2.2.13-2.8.61a1.49,1.49,0,0,1-1.19.36,1.4,1.4,0,0,0,0,.7c0,.13,1.33-.14,1.33-.14"/><path class="cls-1" d="M3.87,6.71l.41-.41.81.81-.45.45"/><polygon class="cls-1" points="4.89 6.91 4.48 6.5 10.74 0.19 11.14 0.6 4.89 6.91"/><path class="cls-1" d="M.88,10.07a2.12,2.12,0,0,0,.68-.48"/></svg>