<svg id="Layer_1" data-name="Layer 1" xmlns="http://www.w3.org/2000/svg" viewBox="0 0 11.34 11.34"><defs><style>.cls-1{fill:none;stroke:#221e28;stroke-linecap:round;stroke-linejoin:round;stroke-width:0.28px;}</style></defs><path class="cls-1" d="M5.51,4.18a1,1,0,0,0,.42.24l0,.13-.07.12A3.26,3.26,0,0,0,5.5,6.88l.15.66a.63.63,0,0,1-.17.57l-.16.16a.6.6,0,0,0-.1.74l0,0a.81.81,0,0,1,0,.74l-.1.17a.89.89,0,0,0,0,.73l.12.3a1.55,1.55,0,0,0-.36.08,1.33,1.33,0,0,1-1.44-.36,1.37,1.37,0,0,0-.84-.43,1.29,1.29,0,0,1-1.1-1A1.32,1.32,0,0,0,1,8.51,1.29,1.29,0,0,1,.42,7.43a1.1,1.1,0,0,1,0-.31,1.1,1.1,0,0,0,0-.31A1.29,1.29,0,0,0,.34,6.2a1.31,1.31,0,0,1-.15-.61,1.3,1.3,0,0,1,.33-.87,1.29,1.29,0,0,0,.33-.84v0a1.3,1.3,0,0,1,.83-1.22,1.44,1.44,0,0,0,.6-.43,2,2,0,0,0,.85,1.19,1.57,1.57,0,0,0,1.09.13,1,1,0,0,1,.87.27Z"/><path class="cls-1" d="M11.14,4.93a1.31,1.31,0,0,1-.15.61s0,.06-.05.1a7.66,7.66,0,0,0-1.1-1.4,1.24,1.24,0,0,0-1.05-.36L7.79,4a.32.32,0,0,1-.33-.16.18.18,0,0,0-.13-.11,1.16,1.16,0,0,0-.31,0,1,1,0,0,1-.9-.26l-.42-.4a1,1,0,0,0-.87-.26,1.65,1.65,0,0,1-1.1-.12,2.08,2.08,0,0,1-.85-1.2h0A.76.76,0,0,0,3,1.34,1.29,1.29,0,0,1,4.16.64h.33A1.26,1.26,0,0,0,5.22.43,1.31,1.31,0,0,1,6,.19a1.33,1.33,0,0,1,.76.25,1.25,1.25,0,0,0,.89.21h.16a1.3,1.3,0,0,1,1.16.7,1.29,1.29,0,0,0,.7.62,1.3,1.3,0,0,1,.84,1.21v0a1.29,1.29,0,0,0,.34.87A1.34,1.34,0,0,1,11.14,4.93Z"/><path class="cls-1" d="M11.09,7.39a1,1,0,0,1,0,.29,1.23,1.23,0,0,1-.52,1,1.2,1.2,0,0,0-.5.72,1.2,1.2,0,0,1-1,.91,1.3,1.3,0,0,0-.77.41,1.19,1.19,0,0,1-.91.41,1.35,1.35,0,0,1-.44-.07A1.07,1.07,0,0,0,6.51,11h-.1l-.12-.28a.81.81,0,0,1,0-.68l.09-.16a.73.73,0,0,0,0-.69l0,0a.57.57,0,0,1,.09-.69l.15-.15a.56.56,0,0,0,.16-.52l-.13-.62a3.36,3.36,0,0,1,.3-2.07C7,5,7,4.87,7.28,4.91l.21,0a1.57,1.57,0,0,1,.29,0l0,0a.15.15,0,0,1,.06,0,.33.33,0,0,0,.18.17l.09,0h0L9.14,5h.39l.14,0,.06,0a.34.34,0,0,1,.12.06l.09.06.1.06.08.08a9.74,9.74,0,0,1,.76.9c.09.13.17.26.25.39v0a1.51,1.51,0,0,0-.09.47A.92.92,0,0,0,11.09,7.39Z"/><circle class="cls-1" cx="8.02" cy="2.06" r="0.51"/><circle class="cls-1" cx="3.57" cy="8.81" r="0.51"/><circle class="cls-1" cx="9.13" cy="8.52" r="0.51"/><circle class="cls-1" cx="8.02" cy="6.42" r="0.36"/><circle class="cls-1" cx="1.97" cy="4.58" r="0.36"/><circle class="cls-1" cx="4.09" cy="5.58" r="0.14"/><circle class="cls-1" cx="4.32" cy="1.67" r="0.14"/><circle class="cls-1" cx="9.65" cy="3.1" r="0.14"/><circle class="cls-1" cx="7.24" cy="4.35" r="0.07"/><circle class="cls-1" cx="6.48" cy="4.35" r="0.07"/><circle class="cls-1" cx="6.36" cy="5.16" r="0.07"/></svg>