<svg id="Layer_1" width='20px' height='20px' data-name="Layer 1" xmlns="http://www.w3.org/2000/svg" viewBox="0 0 11.34 11.34"><defs><style>.cls-1{fill:none;stroke:#221e28;stroke-linecap:round;stroke-linejoin:round;stroke-width:0.28px;}</style></defs><path class="cls-1" d="M4.2,6.8l.51,1.87a.18.18,0,0,1-.25.21L.28,6.78a.16.16,0,0,1,0-.29l4.19-2.1a.17.17,0,0,1,.25.2l-.26,1a.2.2,0,0,0,.19.25H5A4.42,4.42,0,0,0,9.4,2.44a3.86,3.86,0,0,1,.09.84A4.34,4.34,0,0,1,5,7.51a5,5,0,0,1-.55,0"/><path class="cls-1" d="M2.17,8.3V11a.15.15,0,0,1-.15.15h-.8A.14.14,0,0,1,1.07,11V7.71"/><path class="cls-1" d="M1.07,5.52v-5A.37.37,0,0,1,1.44.19H11a.15.15,0,0,1,.15.16v.8A.15.15,0,0,1,11,1.3H2.54a.37.37,0,0,0-.37.37V5"/></svg>