<svg id="Layer_1" data-name="Layer 1" xmlns="http://www.w3.org/2000/svg" viewBox="0 0 11.34 11.34"><defs><style>.cls-1{fill:none;stroke:#221e28;stroke-linecap:round;stroke-linejoin:round;stroke-width:0.28px;}</style></defs><path class="cls-1" d="M6.84,1.93c-.16-.37-.19-.66,0-.8s1.06.07,1.87.77"/><path class="cls-1" d="M9.68,3c.57.73.82,1.4.58,1.64S8.92,4.39,8,3.44"/><path class="cls-1" d="M10.22,4.64C9.9,5,9,5.6,7.44,4.08s-1-2.59-.69-2.9"/><path class="cls-1" d="M9.49,3.25c.38.48.57.87.46,1S9,3.92,8.25,3.15,7,1.61,7.16,1.45s.63.14,1.2.63"/><polyline class="cls-1" points="9.7 2.05 9.5 2.43 9.1 3.19"/><polyline class="cls-1" points="8.39 2.47 9.14 2.07 9.53 1.87"/><circle class="cls-1" cx="9.85" cy="1.72" r="0.36"/><path class="cls-1" d="M4.91,2.89l-.78-.78-1-1L2.33.31a.34.34,0,0,0-.48,0l-.78.78-.78.78a.34.34,0,0,0,0,.48l.78.78,1,1,.78.78a.34.34,0,0,0,.48,0l.78-.78.78-.78A.33.33,0,0,0,4.91,2.89Z"/><line class="cls-1" x1="1.4" y1="1.41" x2="3.81" y2="3.83"/><line class="cls-1" x1="2.71" y1="1.49" x2="2.09" y2="2.11"/><line class="cls-1" x1="3.73" y1="2.51" x2="3.11" y2="3.13"/><line class="cls-1" x1="1.69" y1="2.51" x2="1.09" y2="3.11"/><line class="cls-1" x1="2.71" y1="3.53" x2="2.11" y2="4.13"/><path class="cls-1" d="M11,9l-.78-.78-1-1-.78-.78a.34.34,0,0,0-.48,0l-.79.78L6.4,8a.34.34,0,0,0,0,.48l.78.78,1,1L9,11a.33.33,0,0,0,.48,0l.78-.78L11,9.48A.34.34,0,0,0,11,9Z"/><line class="cls-1" x1="7.51" y1="7.53" x2="9.92" y2="9.94"/><line class="cls-1" x1="8.82" y1="7.61" x2="8.21" y2="8.22"/><line class="cls-1" x1="9.84" y1="8.63" x2="9.23" y2="9.24"/><line class="cls-1" x1="7.8" y1="8.63" x2="7.21" y2="9.22"/><line class="cls-1" x1="8.82" y1="9.65" x2="8.23" y2="10.24"/><line class="cls-1" x1="4.47" y1="4.97" x2="3.93" y2="4.43"/><line class="cls-1" x1="4.4" y1="3.93" x2="4.94" y2="4.47"/><rect class="cls-1" x="6.45" y="6.56" width="0.86" height="0.68" transform="translate(6.9 -2.85) rotate(45.01)"/><path class="cls-1" d="M5,7.49l.16.16a.27.27,0,0,0,.37,0L7.65,5.52a.25.25,0,0,0,0-.36L7,4.52"/><path class="cls-1" d="M7.14,3.82l-.41.41h0l-.55-.55a.27.27,0,0,0-.37,0L3.69,5.81a.25.25,0,0,0,0,.36l.16.16h0l-.23.23a.27.27,0,0,0,0,.37l.78.79a.28.28,0,0,0,.38,0L5,7.49l-.83-.83"/><polyline class="cls-1" points="7.05 4.56 7.1 4.61 7.51 4.2"/><path class="cls-1" d="M10,.74a.65.65,0,0,1,.71.52"/><path class="cls-1" d="M10.15.22a.76.76,0,0,1,.21,0,.78.78,0,0,1,.78.79"/></svg>