<svg id="Layer_1" data-name="Layer 1" xmlns="http://www.w3.org/2000/svg" viewBox="0 0 11.34 11.34"><defs><style>.cls-1{fill:none;stroke:#221e28;stroke-linecap:round;stroke-linejoin:round;stroke-width:0.28px;}</style></defs><path class="cls-1" d="M7.82,3.8V7.69a3.45,3.45,0,0,1-3.46,3.45h0A3.45,3.45,0,0,1,.9,7.69v-.2A3.35,3.35,0,0,1,4.24,4.15h.61v2A1,1,0,0,0,4.28,6h0A1.45,1.45,0,0,0,2.83,7.48v.17A1.55,1.55,0,0,0,4.39,9.2h0A1.54,1.54,0,0,0,5.94,7.65V.19H7.82a3.12,3.12,0,0,0,2.55,2.59h.07V4.65A4.6,4.6,0,0,1,7.82,3.8Z"/></svg>