<svg id="Layer_1"  width='25px' height='25px' data-name="Layer 1" xmlns="http://www.w3.org/2000/svg" viewBox="0 0 11.34 11.34"><defs><style>.cls-1{fill:none;stroke:#221e28;stroke-linecap:round;stroke-linejoin:round;stroke-width:0.28px;}</style></defs><path class="cls-1" d="M10.06,3.58l-1.69.87L6,5.68a.83.83,0,0,1-.75,0L2.82,4.45.37,3.2a.21.21,0,0,1,0-.34L2.82,1.61,5.22.38A.77.77,0,0,1,6,.38l2.4,1.23L11.05,3"/><path class="cls-1" d="M8.68,4.41l.59,3.65a.62.62,0,0,1-.57.75H2.49a.63.63,0,0,1-.58-.75l.6-3.65"/><polyline class="cls-1" points="5.59 3.03 10.52 3.55 10.52 9.06"/><rect class="cls-1" x="9.98" y="9.06" width="1.08" height="1.99"/></svg>