<svg id="Layer_1" data-name="Layer 1" xmlns="http://www.w3.org/2000/svg" viewBox="0 0 11.34 11.34"><defs><style>.cls-1{fill:none;stroke:#221e28;stroke-linecap:round;stroke-linejoin:round;stroke-width:0.28px;}</style></defs><path class="cls-1" d="M3.83,11.06H.62a.34.34,0,0,1-.34-.34V7.91"/><path class="cls-1" d="M11.06,7.91v2.81a.34.34,0,0,1-.34.34H7.51"/><path class="cls-1" d="M7.51.28h3.21a.34.34,0,0,1,.34.34V3.43"/><path class="cls-1" d="M.28,3.43V.62A.34.34,0,0,1,.62.28H3.83"/><line class="cls-1" x1="3.85" y1="7.51" x2="0.56" y2="10.81"/><line class="cls-1" x1="10.95" y1="10.96" x2="7.51" y2="7.51"/><polyline class="cls-1" points="10.82 0.48 7.51 3.83 7.5 3.83"/><line class="cls-1" x1="3.83" y1="3.83" x2="0.38" y2="0.37"/></svg>