<svg id="Layer_1" data-name="Layer 1" xmlns="http://www.w3.org/2000/svg" viewBox="0 0 11.34 11.34"><defs><style>.cls-1{fill:none;stroke:#221e28;stroke-linecap:round;stroke-linejoin:round;stroke-width:0.28px;}</style></defs><path class="cls-1" d="M4.69,11s-4.4-.2-4.4-3c0-1.82,1.37-2.27.79-4.34a3.07,3.07,0,0,1,1.8,2S2.64,4.45,4.29,3.26a2.36,2.36,0,0,0,.87-3S10.3,3.57,8.81,7.13a2.79,2.79,0,0,0,1.82-1.68s2.24,4.82-3.7,5.59a1.82,1.82,0,0,0,1.16-1.7c0-1-.73-1.39-1.4-1.95a2.33,2.33,0,0,1-.81-1.74S3.76,7,4.51,8.73a2.85,2.85,0,0,1-1.08-1.2A2.57,2.57,0,0,0,4.69,11Z"/></svg>