<svg id="Layer_1" width='25px' height='25px' data-name="Layer 1" xmlns="http://www.w3.org/2000/svg" viewBox="0 0 11.34 11.34"><defs><style>.cls-1{fill:none;stroke:#221e28;stroke-linecap:round;stroke-linejoin:round;stroke-width:0.28px;}</style></defs><path class="cls-1" d="M.31,7.74l.4-.39a2.67,2.67,0,0,1,3.23-.46,3,3,0,0,1,.55.41,3.7,3.7,0,0,1,.37.41l.27.37a1.66,1.66,0,0,0,2.38.36l.42-.33a1.83,1.83,0,0,1,3.1,1V9.7A1.27,1.27,0,0,1,9.85,11H1.49A1.27,1.27,0,0,1,.31,9.7V1.64A1.27,1.27,0,0,1,1.49.31H9.84A1.27,1.27,0,0,1,11,1.64V9.1"/><polyline class="cls-1" points="3.83 6.84 3.61 6.17 7.4 7.48 6.91 8.72"/><path class="cls-1" d="M6.49,6.38A5.91,5.91,0,0,1,6.6,2.61a4,4,0,0,0-2.31,3Z"/></svg>