<svg id="Layer_1" data-name="Layer 1" xmlns="http://www.w3.org/2000/svg" viewBox="0 0 56.69 56.69"><defs><style>.cls-1{fill:#f72585;}.cls-2,.cls-5{fill:none;stroke-miterlimit:10;}.cls-2{stroke:#f72585;}.cls-3{fill:#4361ee;}.cls-4{fill:#57c4e5;}.cls-5{stroke:#211e26;}</style></defs><circle class="cls-1" cx="38.98" cy="17.71" r="12.79"/><circle class="cls-2" cx="38.98" cy="17.71" r="16.59"/><rect class="cls-3" x="19.16" y="20.99" width="15.63" height="9.19" transform="translate(-8.83 15.59) rotate(-27.89)"/><rect class="cls-3" x="9.77" y="29.15" width="10.5" height="5.51" transform="translate(-13.18 10.73) rotate(-27.89)"/><rect class="cls-3" x="3.53" y="34.77" width="6.96" height="2.75" transform="translate(-16.09 7.48) rotate(-27.89)"/><path class="cls-4" d="M38,19.73a4.43,4.43,0,0,1-1.57,6l-4.3-8.12A4.42,4.42,0,0,1,38,19.73Z"/><rect class="cls-3" x="2.08" y="35.87" width="1.49" height="4.46" transform="translate(-17.5 5.75) rotate(-27.89)"/><polyline class="cls-5" points="3.21 40.42 4.76 39.48 4.53 39.04 11.01 35.57 11.66 36.8 21.3 31.69 22.21 33.3 36.46 25.76"/><circle class="cls-4" cx="21.84" cy="32.42" r="2.2"/><rect class="cls-4" x="17.15" y="32.15" width="0.86" height="23.78" transform="translate(13.06 -3.16) rotate(16.3)"/><rect class="cls-4" x="25.75" y="32.15" width="0.86" height="23.78" transform="translate(63.67 78.96) rotate(163.7)"/><rect class="cls-4" x="16.71" y="46.24" width="10.26" height="0.96"/></svg>