<svg id="Layer_1" data-name="Layer 1" xmlns="http://www.w3.org/2000/svg" viewBox="0 0 56.69 56.69"><defs><style>.cls-1{fill:none;stroke:#211e26;stroke-miterlimit:10;}.cls-2{fill:#57c4e5;}.cls-3{fill:#f72585;}.cls-4{fill:#4361ee;}</style></defs><polyline class="cls-1" points="8.32 47.08 4.82 43.38 1.12 47.35"/><polyline class="cls-1" points="11.96 43.38 19.57 35.25 27.18 42.63"/><path class="cls-2" d="M27.1,13.34l3.4,2.21,3.61-.41,0-1.59L31,13.16,26.42,9.92,19.8,11.71l-2.22,6.55,5.09,2.57,3.38,14.42L27.5,33,26.17,21.86l3.19,1.61.94,5.18,1.31-2,.18-4.45-3.6-3.24Zm-6.81,4,.61-2.61,1.21,3.6Z"/><rect class="cls-3" x="33.88" y="1.13" width="1.12" height="22.96" transform="translate(68.4 26.46) rotate(-177.94)"/><polygon class="cls-4" points="33.92 21.88 55.57 55.57 33.92 55.57 12.28 55.57 33.92 21.88"/><polygon class="cls-2" points="11.96 38.58 17.34 47.08 22.71 55.57 11.96 55.57 1.21 55.57 6.59 47.08 11.96 38.58"/><circle class="cls-2" cx="22.44" cy="7.79" r="2.15"/><rect class="cls-3" x="34.81" y="2.11" width="12.37" height="9.12" transform="translate(81.53 15.69) rotate(-176.7)"/></svg>