<svg id="Layer_1" data-name="Layer 1" xmlns="http://www.w3.org/2000/svg" viewBox="0 0 56.69 56.69"><defs><style>.cls-1{fill:#d0ccd0;}.cls-2{fill:#211e26;}.cls-3,.cls-4{fill:none;stroke-miterlimit:10;}.cls-3{stroke:#3a383f;}.cls-4{stroke:#d0ccd0;stroke-width:1.5px;}</style></defs><rect class="cls-1" x="1.12" y="31.69" width="23.89" height="23.89" rx="11.82"/><rect class="cls-1" x="37.31" y="1.12" width="18.26" height="18.26"/><polygon class="cls-2" points="43.66 12.86 28.3 7.12 12.95 12.86 12.56 34.7 28.3 49.66 44.05 34.7 43.66 12.86"/><polygon class="cls-3" points="45.07 11.43 28.3 5.16 11.54 11.43 11.11 35.28 28.3 51.62 45.5 35.28 45.07 11.43"/><path class="cls-4" d="M30.51,25.9A2.25,2.25,0,0,0,26,25.76a2.23,2.23,0,0,0,.8,1.87,1.37,1.37,0,0,1,.51,1.06v1.86a.8.8,0,0,0,.79.79h.28a.79.79,0,0,0,.79-.79V28.69a1.37,1.37,0,0,1,.51-1.06A2.22,2.22,0,0,0,30.51,25.9Z"/><path class="cls-4" d="M31.89,20.53V18a3.61,3.61,0,0,0-3.61-3.61h0A3.61,3.61,0,0,0,24.64,18v2.53"/><rect class="cls-4" x="21.54" y="20.73" width="13.53" height="13.53"/></svg>