<svg id="Layer_1" data-name="Layer 1" xmlns="http://www.w3.org/2000/svg" viewBox="0 0 56.69 56.69"><defs><style>.cls-1{fill:#3a383f;}.cls-2{fill:#d0ccd0;}.cls-3,.cls-5{fill:none;stroke-miterlimit:10;}.cls-3{stroke:#d0ccd0;}.cls-4{fill:#fff;}.cls-5{stroke:#fff;}.cls-6{fill:#211e26;}</style></defs><rect class="cls-1" x="1.12" y="17.49" width="25.58" height="33.54"/><rect class="cls-2" x="29.99" y="22.03" width="25.58" height="33.54"/><line class="cls-3" x1="1.12" y1="21.26" x2="26.7" y2="21.26"/><circle class="cls-2" cx="3.13" cy="19.03" r="0.61"/><rect class="cls-2" x="5.74" y="18.41" width="14.53" height="1.23"/><rect class="cls-4" x="3.1" y="24.58" width="8.84" height="1.23"/><rect class="cls-4" x="3.1" y="28.09" width="8.84" height="1.23"/><rect class="cls-4" x="3.1" y="31.59" width="8.84" height="1.23"/><rect class="cls-4" x="3.1" y="35.09" width="8.84" height="1.23"/><rect class="cls-4" x="3.1" y="39.38" width="21.63" height="1.23"/><rect class="cls-3" x="13.91" y="24.32" width="10.82" height="11.38"/><line class="cls-5" x1="29.99" y1="25.8" x2="55.57" y2="25.8"/><circle class="cls-4" cx="32" cy="23.57" r="0.61"/><rect class="cls-4" x="34.61" y="22.96" width="14.53" height="1.23"/><rect class="cls-4" x="31.97" y="29.13" width="8.84" height="1.23"/><rect class="cls-4" x="31.97" y="32.63" width="8.84" height="1.23"/><rect class="cls-4" x="31.97" y="36.13" width="8.84" height="1.23"/><rect class="cls-4" x="31.97" y="39.63" width="8.84" height="1.23"/><rect class="cls-4" x="31.97" y="43.93" width="21.63" height="1.23"/><rect class="cls-5" x="42.78" y="28.86" width="10.82" height="11.38"/><rect class="cls-6" x="15.55" y="7.21" width="25.58" height="33.54"/><line class="cls-3" x1="15.55" y1="10.98" x2="41.14" y2="10.98"/><circle class="cls-2" cx="17.57" cy="8.75" r="0.61"/><rect class="cls-2" x="20.17" y="8.14" width="14.53" height="1.23"/><rect class="cls-4" x="17.54" y="14.31" width="8.84" height="1.23"/><rect class="cls-4" x="17.54" y="17.81" width="8.84" height="1.23"/><rect class="cls-4" x="17.54" y="21.31" width="8.84" height="1.23"/><rect class="cls-4" x="17.54" y="24.81" width="8.84" height="1.23"/><rect class="cls-4" x="17.54" y="29.11" width="21.63" height="1.23"/><rect class="cls-3" x="28.35" y="14.04" width="10.82" height="11.38"/><polygon class="cls-2" points="39.76 12.17 36.19 5.1 37.97 4.2 40.17 8.56 46.42 1.12 47.95 2.4 39.76 12.17"/></svg>