<svg id="Layer_1" width='20px' height='20px' data-name="Layer 1" xmlns="http://www.w3.org/2000/svg" viewBox="0 0 11.34 11.34"><defs><style>.cls-1{fill:none;stroke:#221e28;stroke-linecap:round;stroke-linejoin:round;stroke-width:0.28px;}</style></defs><path class="cls-1" d="M10,4.61l-1.75.71-2.38,1a1,1,0,0,1-.73,0l-2.38-1-2.42-1a.14.14,0,0,1,0-.26l2.42-1,2.38-1a.93.93,0,0,1,.73,0l2.38,1,2.66,1.08a.14.14,0,0,1,.09.13l.05,3.07"/><path class="cls-1" d="M8.58,5.3l.59,3.28a.58.58,0,0,1-.57.68H2.45a.58.58,0,0,1-.57-.68L2.47,5.3"/></svg>