<svg id="Layer_1" data-name="Layer 1" xmlns="http://www.w3.org/2000/svg" viewBox="0 0 11.34 11.34"><defs><style>.cls-1{fill:none;stroke:#221e28;stroke-linecap:round;stroke-linejoin:round;stroke-width:0.28px;}</style></defs><path class="cls-1" d="M7.66,2h.59a.27.27,0,0,0,.26-.27V.53A.26.26,0,0,0,8.25.26L7,.23A2.41,2.41,0,0,0,4.51,2.65V3.9a.27.27,0,0,1-.27.27H3.09a.27.27,0,0,0-.27.26V5.9a.27.27,0,0,0,.27.27H4.24a.27.27,0,0,1,.27.27v4.4a.27.27,0,0,0,.27.27H6.24a.27.27,0,0,0,.27-.27V6.44a.27.27,0,0,1,.27-.27H8a.26.26,0,0,0,.26-.23l.19-1.47a.27.27,0,0,0-.27-.3H6.78a.27.27,0,0,1-.27-.27V3.13A1.15,1.15,0,0,1,7.66,2Z"/></svg>