<svg id="Layer_1" data-name="Layer 1" xmlns="http://www.w3.org/2000/svg" viewBox="0 0 11.34 11.34"><defs><style>.cls-1{fill:none;stroke:#221e28;stroke-linecap:round;stroke-linejoin:round;stroke-width:0.28px;}</style></defs><path class="cls-1" d="M1,7.58C1.09,5.73,2.47,4.83,3.79,3.7A4.62,4.62,0,0,0,5.39.24S9.18,2.76,7.7,6.32A4.5,4.5,0,0,0,9.77,4.18s2.51,6.14-3.37,6.91a2,2,0,0,0,.84-1.8c0-1-.72-1.39-1.38-1.95a2.32,2.32,0,0,1-.8-1.74S3.15,6.86,3.89,8.65a2.25,2.25,0,0,1-1-1.07,2.8,2.8,0,0,0,1.49,3.51S1,10.77,1,7.58Z"/></svg>