<svg id="Layer_1" width='20px' height='20px' data-name="Layer 1" xmlns="http://www.w3.org/2000/svg" viewBox="0 0 11.34 11.34"><defs><style>.cls-1{fill:none;stroke:#221e28;stroke-linecap:round;stroke-linejoin:round;stroke-width:0.28px;}</style></defs><path class="cls-1" d="M8.49,4.91h1a.31.31,0,0,1,.31.31V8.46a.31.31,0,0,1-.31.31H8.8a.31.31,0,0,1-.31-.31V2.24A.52.52,0,0,0,8,1.71H.79a.52.52,0,0,0-.52.53V9.1a.52.52,0,0,0,.52.52h9.76a.52.52,0,0,0,.52-.52v-3a.4.4,0,0,0-.4-.4H9.85"/><rect class="cls-1" x="1.46" y="3.3" width="2" height="2.01" rx="0.35"/><line class="cls-1" x1="4.53" y1="3.3" x2="7.18" y2="3.3"/><line class="cls-1" x1="4.53" y1="4.3" x2="7.18" y2="4.3"/><line class="cls-1" x1="4.53" y1="5.31" x2="7.18" y2="5.31"/><line class="cls-1" x1="1.46" y1="6.72" x2="7.18" y2="6.72"/><line class="cls-1" x1="1.46" y1="7.77" x2="7.18" y2="7.77"/></svg>