<svg id="Layer_1" data-name="Layer 1" xmlns="http://www.w3.org/2000/svg" viewBox="0 0 11.34 11.34"><defs><style>.cls-1{fill:none;stroke:#221e28;stroke-linecap:round;stroke-linejoin:round;stroke-width:0.28px;}</style></defs><path class="cls-1" d="M6.5,5.16a1.47,1.47,0,0,0,2.06,0,1.45,1.45,0,0,0,.33-.5"/><path class="cls-1" d="M9,3.9a1.43,1.43,0,0,0-.41-.81"/><path class="cls-1" d="M5.41,7.43a3.78,3.78,0,0,0,4.94-1.09A3.83,3.83,0,1,0,3.9,6a.45.45,0,0,1-.06.54L.28,10.06a.24.24,0,0,0,.07.29L1,11a.27.27,0,0,0,.37,0L4.86,7.49A.45.45,0,0,1,5.41,7.43Z"/><ellipse class="cls-1" cx="7.25" cy="4.1" rx="2.7" ry="2.71"/></svg>