<svg id="Layer_1" data-name="Layer 1" xmlns="http://www.w3.org/2000/svg" viewBox="0 0 11.34 11.34"><defs><style>.cls-1{fill:none;stroke:#221e28;stroke-linecap:round;stroke-linejoin:round;stroke-width:0.28px;}</style></defs><path class="cls-1" d="M.38,9.26a.11.11,0,0,0,0,.2,7.38,7.38,0,0,0,5,.59c3.32-.64,5-4.48,4.8-6.52a.4.4,0,0,1,.14-.32,5.74,5.74,0,0,0,.77-.7.11.11,0,0,0-.12-.17,2.25,2.25,0,0,1-.92.18,3.43,3.43,0,0,0,.84-1,.1.1,0,0,0-.13-.14,7.75,7.75,0,0,1-1,.41.2.2,0,0,1-.18,0,2.51,2.51,0,0,0-2.66-.43A2.45,2.45,0,0,0,5.6,3.78a.15.15,0,0,1-.15.15A6.15,6.15,0,0,1,1,1.68a.13.13,0,0,0-.22,0A2.25,2.25,0,0,0,1.3,4.35c.1.09.13.26-.1.24a1.23,1.23,0,0,1-.46-.15.14.14,0,0,0-.2.14,2.53,2.53,0,0,0,1.65,2,.09.09,0,0,1,0,.17,1.9,1.9,0,0,1-.59,0,.14.14,0,0,0-.15.19A2.15,2.15,0,0,0,3.24,8.24a.09.09,0,0,1,0,.17A4.76,4.76,0,0,1,.38,9.26Z"/></svg>