<svg id="Layer_1" data-name="Layer 1" xmlns="http://www.w3.org/2000/svg" viewBox="0 0 14.17 14.17"><defs><style>.cls-1{fill:none;stroke:#221e28;stroke-linecap:round;stroke-linejoin:round;stroke-width:0.35px;}</style></defs><path class="cls-1" d="M12.53,5.77l-2.19.88-3,1.2a1.22,1.22,0,0,1-.92,0l-3-1.2-3-1.22a.18.18,0,0,1,0-.33l3-1.22,3-1.2a1.22,1.22,0,0,1,.92,0l3,1.2,3.33,1.34a.19.19,0,0,1,.11.16l.06,3.85"/><path class="cls-1" d="M10.72,6.62l.74,4.11a.72.72,0,0,1-.71.85H3.06a.72.72,0,0,1-.71-.85l.74-4.1"/></svg>