<svg id="Layer_1" width='24px' height='24px' data-name="Layer 1" xmlns="http://www.w3.org/2000/svg" viewBox="0 0 14.17 14.17"><defs><style>.cls-1{fill:none;stroke:#221e28;stroke-linecap:round;stroke-linejoin:round;stroke-width:0.35px;}</style></defs><path class="cls-1" d="M4.77,13.12h-4a.43.43,0,0,1-.43-.43V9.15"/><path class="cls-1" d="M13.87,9.15v3.54a.42.42,0,0,1-.42.43h-4"/><path class="cls-1" d="M9.4,1.06h4a.42.42,0,0,1,.42.42V5"/><path class="cls-1" d="M.3,5V1.48a.42.42,0,0,1,.43-.42h4"/><line class="cls-1" x1="4.77" y1="9.15" x2="0.65" y2="12.81"/><line class="cls-1" x1="13.74" y1="13" x2="9.41" y2="9.15"/><polyline class="cls-1" points="9.4 5.03 9.41 5.03 13.57 1.32"/><line class="cls-1" x1="4.77" y1="5.03" x2="0.43" y2="1.17"/></svg>