<svg id="Layer_1" data-name="Layer 1" xmlns="http://www.w3.org/2000/svg" viewBox="0 0 14.17 14.17"><defs><style>.cls-1{fill:none;stroke:#221e28;stroke-linecap:round;stroke-linejoin:round;stroke-width:0.35px;}</style></defs><path class="cls-1" d="M9.59,2.46h.73a.34.34,0,0,0,.34-.33V.65a.34.34,0,0,0-.33-.34L8.72.28a3,3,0,0,0-3.09,3V4.87a.34.34,0,0,1-.34.33H3.85a.34.34,0,0,0-.33.34V7.38a.34.34,0,0,0,.33.34H5.29a.34.34,0,0,1,.34.33v5.51A.34.34,0,0,0,6,13.9H7.81a.34.34,0,0,0,.33-.34V8.05a.34.34,0,0,1,.34-.33H10a.33.33,0,0,0,.33-.3l.23-1.84a.33.33,0,0,0-.33-.38H8.48a.34.34,0,0,1-.34-.33v-1A1.45,1.45,0,0,1,9.59,2.46Z"/></svg>