<svg id="Layer_1" data-name="Layer 1" xmlns="http://www.w3.org/2000/svg" viewBox="0 0 14.17 14.17"><defs><style>.cls-1{fill:none;stroke:#221e28;stroke-linecap:round;stroke-linejoin:round;stroke-width:0.35px;}</style></defs><circle class="cls-1" cx="7.09" cy="7.09" r="2.6"/><path class="cls-1" d="M11.73,7.09a4.62,4.62,0,0,0-.05-.65.34.34,0,0,1,.16-.35l1.57-1a.35.35,0,0,0,.12-.48l-1.3-2.14a.34.34,0,0,0-.47-.12l-1.59,1a.35.35,0,0,1-.38,0,4.89,4.89,0,0,0-.89-.51.34.34,0,0,1-.21-.32V.67A.35.35,0,0,0,8.34.32H5.84a.35.35,0,0,0-.35.35V2.51a.35.35,0,0,1-.22.32,4.8,4.8,0,0,0-.88.51.37.37,0,0,1-.39,0l-1.58-1a.35.35,0,0,0-.48.12L.65,4.66a.34.34,0,0,0,.12.48l1.56,1a.34.34,0,0,1,.17.35,4.25,4.25,0,0,0,0,1.29.38.38,0,0,1-.17.36L.77,9a.35.35,0,0,0-.12.48l1.29,2.14a.34.34,0,0,0,.48.12L4,10.82a.33.33,0,0,1,.39,0,4.25,4.25,0,0,0,.88.5.36.36,0,0,1,.22.32v1.85a.34.34,0,0,0,.35.34h2.5a.35.35,0,0,0,.35-.34V11.66a.35.35,0,0,1,.21-.32,4.32,4.32,0,0,0,.89-.5.32.32,0,0,1,.38,0l1.59.95a.34.34,0,0,0,.47-.12l1.3-2.14A.36.36,0,0,0,13.41,9l-1.57-.94a.37.37,0,0,1-.16-.36A4.48,4.48,0,0,0,11.73,7.09Z"/></svg>