<svg id="Layer_1" data-name="Layer 1" xmlns="http://www.w3.org/2000/svg" viewBox="0 0 14.17 14.17"><defs><style>.cls-1{fill:none;stroke:#221e28;stroke-linecap:round;stroke-linejoin:round;stroke-width:0.35px;}</style></defs><path class="cls-1" d="M.45,11.59a.13.13,0,0,0-.06.24,9.26,9.26,0,0,0,6.27.74c4.16-.8,6.26-5.61,6-8.16a.45.45,0,0,1,.17-.4,7.26,7.26,0,0,0,1-.88.13.13,0,0,0-.15-.21,3,3,0,0,1-1.15.23,4.6,4.6,0,0,0,1.06-1.22.13.13,0,0,0-.17-.18,9.79,9.79,0,0,1-1.3.52.27.27,0,0,1-.23,0,3.14,3.14,0,0,0-3.33-.54A3.09,3.09,0,0,0,7,4.72a.19.19,0,0,1-.18.19c-.67,0-3.09-.14-5.6-2.81a.18.18,0,0,0-.29,0,2.82,2.82,0,0,0,.69,3.29c.12.12.15.33-.13.3a1.39,1.39,0,0,1-.57-.18.17.17,0,0,0-.25.17A3.13,3.13,0,0,0,2.73,8.19a.11.11,0,0,1,0,.21A2.3,2.3,0,0,1,2,8.4a.18.18,0,0,0-.18.24A2.7,2.7,0,0,0,4,10.31a.12.12,0,0,1,.07.21A6.07,6.07,0,0,1,.45,11.59Z"/></svg>