<svg id="Layer_1" data-name="Layer 1" xmlns="http://www.w3.org/2000/svg" viewBox="0 0 14.17 14.17"><defs><style>.cls-1{fill:none;stroke:#221e28;stroke-linecap:round;stroke-linejoin:round;stroke-width:0.35px;}</style></defs><path class="cls-1" d="M9.83,6.05l3.1-2.31a.59.59,0,0,1,.93.48V10a.59.59,0,0,1-.93.48L10.27,8.51a.27.27,0,0,0-.44.22V10.3a.8.8,0,0,1-.8.81H1.11a.8.8,0,0,1-.8-.81V3.87a.8.8,0,0,1,.8-.8H9a.8.8,0,0,1,.8.8V7"/><path class="cls-1" d="M7.14,7.29,4.18,9a.24.24,0,0,1-.37-.2V5.38a.25.25,0,0,1,.37-.21l3,1.71A.24.24,0,0,1,7.14,7.29Z"/></svg>