<svg id="Layer_1" data-name="Layer 1" xmlns="http://www.w3.org/2000/svg" viewBox="0 0 11.34 11.34"><defs><style>.cls-1{fill:none;stroke:#f6f4f9;stroke-linecap:round;stroke-linejoin:round;stroke-width:0.28px;}</style></defs><path class="cls-1" d="M7.47,2.34H8a.24.24,0,0,0,.24-.24V1A.25.25,0,0,0,8,.79L6.85.77A2.18,2.18,0,0,0,4.62,3V4.07a.25.25,0,0,1-.24.25h-1a.24.24,0,0,0-.24.24V5.88a.24.24,0,0,0,.24.24h1a.25.25,0,0,1,.24.25v4a.24.24,0,0,0,.24.24H6.19a.24.24,0,0,0,.24-.24v-4a.25.25,0,0,1,.24-.25H7.74A.25.25,0,0,0,8,5.91l.16-1.32a.23.23,0,0,0-.24-.27H6.67a.25.25,0,0,1-.24-.25V3.38A1,1,0,0,1,7.47,2.34Z"/><rect class="cls-1" x="0.25" y="0.25" width="10.83" height="10.83" rx="0.67"/></svg>