<svg id="Layer_1" data-name="Layer 1" xmlns="http://www.w3.org/2000/svg" viewBox="0 0 11.34 11.34"><defs><style>.cls-1{fill:none;stroke:#f6f4f9;stroke-linecap:round;stroke-linejoin:round;stroke-width:0.28px;}</style></defs><path class="cls-1" d="M7.06,6.71l.9.85s.09,0,.09,0L8,5.83a.36.36,0,0,0-.27-.33l-.36-.08a.21.21,0,0,1-.16-.21A7.33,7.33,0,0,0,5.75.32a.1.1,0,0,0-.16,0A7.42,7.42,0,0,0,4.16,5.21.2.2,0,0,1,4,5.42l-.36.08a.36.36,0,0,0-.27.33L3.29,7.52c0,.05.06.08.09,0l.9-.85a.27.27,0,0,1,.19-.08h2.4A.27.27,0,0,1,7.06,6.71Z"/><circle class="cls-1" cx="5.67" cy="2.86" r="0.48"/><path class="cls-1" d="M5,1.31a1.19,1.19,0,0,0,.65.2,1.13,1.13,0,0,0,.64-.2"/><path class="cls-1" d="M6.34,7.26a2.56,2.56,0,0,1-.59,1.25.14.14,0,0,1-.17,0A2.56,2.56,0,0,1,5,7.26"/><path class="cls-1" d="M6.88,7.47A5.31,5.31,0,0,1,5.75,9.83a.12.12,0,0,1-.16,0A5.31,5.31,0,0,1,4.46,7.47"/><path class="cls-1" d="M1.37,10.32a1.29,1.29,0,0,1,1.93.57A.82.82,0,0,1,4.53,11a1.32,1.32,0,0,1,2.19,0s.58-.75,1.44,0a1.11,1.11,0,0,1,1.66-.35"/><path class="cls-1" d="M7.53,9.15s.31-.85,1.36-.26a1.36,1.36,0,0,1,2.16-.35"/><path class="cls-1" d="M3.94,9.56a.51.51,0,0,0-.78-.11A.79.79,0,0,0,2,9.3"/><path class="cls-1" d="M3.38,8.57a1.32,1.32,0,0,0-1.8-.2A1.22,1.22,0,0,0,.28,7.9"/></svg>