<svg id="Layer_1" data-name="Layer 1" xmlns="http://www.w3.org/2000/svg" viewBox="0 0 11.34 11.34"><defs><style>.cls-1{fill:none;stroke:#f6f4f9;stroke-linecap:round;stroke-linejoin:round;stroke-width:0.28px;}</style></defs><path class="cls-1" d="M6.44,5.2a1.37,1.37,0,0,0,.78.4,1.41,1.41,0,0,0,1.26-.4,1.33,1.33,0,0,0,.33-.49"/><path class="cls-1" d="M8.89,4a1.47,1.47,0,0,0-.41-.8"/><path class="cls-1" d="M5.36,7.45a3.78,3.78,0,1,0-.85-6A3.8,3.8,0,0,0,3.87,6a.44.44,0,0,1-.06.53L.49,9.84a.42.42,0,0,0,0,.59l.39.41a.41.41,0,0,0,.61,0L4.82,7.51A.45.45,0,0,1,5.36,7.45Z"/><circle class="cls-1" cx="7.19" cy="4.15" r="2.68"/><path class="cls-1" d="M1.15,10.18,4.68,6.66a.28.28,0,0,1,.39,0A3.22,3.22,0,0,0,9.46,6.4a3.2,3.2,0,0,0,0-4.56"/></svg>