<svg id="Layer_1" data-name="Layer 1" xmlns="http://www.w3.org/2000/svg" viewBox="0 0 11.34 11.34"><defs><style>.cls-1{fill:none;stroke:#f6f4f9;stroke-linecap:round;stroke-linejoin:round;stroke-width:0.28px;}</style></defs><circle class="cls-1" cx="5.67" cy="5.67" r="2.05"/><path class="cls-1" d="M9.42,5.67a4,4,0,0,0,0-.5.27.27,0,0,1,.13-.28l1.27-.73a.26.26,0,0,0,.09-.37l-1-1.66A.29.29,0,0,0,9.44,2l-1.28.74a.27.27,0,0,1-.31,0,4.43,4.43,0,0,0-.71-.39A.26.26,0,0,1,7,2.13V.7A.28.28,0,0,0,6.68.43h-2A.27.27,0,0,0,4.38.7V2.13a.26.26,0,0,1-.18.24,4.43,4.43,0,0,0-.71.39.27.27,0,0,1-.31,0L1.9,2a.29.29,0,0,0-.39.09l-1,1.66a.26.26,0,0,0,.09.37l1.27.73A.25.25,0,0,1,2,5.17a3.32,3.32,0,0,0,0,1,.27.27,0,0,1-.13.28L.56,7.18a.26.26,0,0,0-.09.37l1,1.66a.29.29,0,0,0,.39.09l1.28-.74a.29.29,0,0,1,.31,0A3.81,3.81,0,0,0,4.2,9a.26.26,0,0,1,.18.24v1.43a.27.27,0,0,0,.28.27h2A.28.28,0,0,0,7,10.64V9.21A.26.26,0,0,1,7.14,9a3.81,3.81,0,0,0,.71-.4.29.29,0,0,1,.31,0l1.28.74a.29.29,0,0,0,.39-.09l1-1.66a.26.26,0,0,0-.09-.37L9.51,6.45a.27.27,0,0,1-.13-.28A4,4,0,0,0,9.42,5.67Z"/></svg>