<svg id="Layer_1" data-name="Layer 1" xmlns="http://www.w3.org/2000/svg" viewBox="0 0 11.34 11.34"><defs><style>.cls-1{fill:none;stroke:#f6f4f9;stroke-linecap:round;stroke-linejoin:round;stroke-width:0.28px;}</style></defs><path class="cls-1" d="M6.72,3.28H6.25A4.19,4.19,0,0,0,2,6.51a3.5,3.5,0,0,1-.09-.8,4.14,4.14,0,0,1,4.31-4H6.8l-.39-1A.25.25,0,0,1,6.75.39L10.83,2.3a.27.27,0,0,1,0,.48l-4,1.82a.25.25,0,0,1-.35-.29l.43-1.64"/><path class="cls-1" d="M10,4.57v6a.38.38,0,0,1-.38.38H.74a.38.38,0,0,1-.38-.38V1.72a.38.38,0,0,1,.38-.38h2"/></svg>