<svg id="Layer_1" data-name="Layer 1" xmlns="http://www.w3.org/2000/svg" viewBox="0 0 11.34 11.34"><defs><style>.cls-1{fill:none;stroke:#f6f4f9;stroke-linecap:round;stroke-linejoin:round;stroke-width:0.28px;}</style></defs><path class="cls-1" d="M.8,9a.1.1,0,0,0-.05.18,6.82,6.82,0,0,0,4.61.54c3.05-.59,4.59-4.11,4.42-6a.34.34,0,0,1,.13-.3,4.93,4.93,0,0,0,.7-.65.1.1,0,0,0-.11-.15,2.22,2.22,0,0,1-.85.17,3.26,3.26,0,0,0,.78-.89.09.09,0,0,0-.12-.13,7.93,7.93,0,0,1-1,.37.17.17,0,0,1-.17,0,2.27,2.27,0,0,0-2.44-.39A2.24,2.24,0,0,0,5.6,3.93a.13.13,0,0,1-.13.14A5.64,5.64,0,0,1,1.36,2a.13.13,0,0,0-.21,0,2.07,2.07,0,0,0,.5,2.42c.09.08.11.23-.1.22a1.21,1.21,0,0,1-.42-.14A.13.13,0,0,0,1,4.67,2.3,2.3,0,0,0,2.47,6.48a.09.09,0,0,1,0,.16,2.06,2.06,0,0,1-.55,0,.13.13,0,0,0-.13.18A2,2,0,0,0,3.43,8a.09.09,0,0,1,0,.16A4.41,4.41,0,0,1,.8,9Z"/><rect class="cls-1" x="0.28" y="0.28" width="10.79" height="10.79" rx="0.66"/></svg>