<svg id="Layer_1" data-name="Layer 1" xmlns="http://www.w3.org/2000/svg" viewBox="0 0 11.34 11.34"><defs><style>.cls-1{fill:none;stroke:#f6f4f9;stroke-linecap:round;stroke-linejoin:round;stroke-width:0.28px;}</style></defs><path class="cls-1" d="M5.45,7.67,2.76,9.23a.18.18,0,0,1-.27-.15V6a.18.18,0,0,1,.27-.15L5.45,7.36A.18.18,0,0,1,5.45,7.67Z"/><path class="cls-1" d="M7.77,7.43V4.58A.58.58,0,0,0,7.18,4H6.42a1.88,1.88,0,1,0-2.3-2.41H4A1.88,1.88,0,1,0,1.66,4H.88a.59.59,0,0,0-.59.59v5.88A.59.59,0,0,0,.88,11h6.3a.58.58,0,0,0,.59-.58V9a.24.24,0,0,1,.38-.2l2.52,2a.23.23,0,0,0,.37-.19V4.48a.23.23,0,0,0-.37-.19L7.77,6.62M3.09,3.83A1.84,1.84,0,0,0,4,2.78a.08.08,0,0,1,.15,0A1.84,1.84,0,0,0,5,3.83.09.09,0,0,1,5,4H3.13A.08.08,0,0,1,3.09,3.83Z"/></svg>